<svg width="30" height="30" viewBox="0 0 30 30" fill="none" xmlns="http://www.w3.org/2000/svg">
<path d="M21.05 14.5371C21.5507 14.5433 22.0475 14.4492 22.5113 14.2603C22.975 14.0714 23.3962 13.7915 23.75 13.4371L27.2875 9.89965C27.5203 9.66544 27.651 9.34863 27.651 9.0184C27.651 8.68816 27.5203 8.37135 27.2875 8.13715C27.1713 8.01999 27.033 7.92699 26.8807 7.86353C26.7284 7.80007 26.565 7.7674 26.4 7.7674C26.235 7.7674 26.0716 7.80007 25.9193 7.86353C25.7669 7.92699 25.6287 8.01999 25.5125 8.13715L21.9375 11.6621C21.8213 11.7793 21.683 11.8723 21.5307 11.9358C21.3784 11.9992 21.215 12.0319 21.05 12.0319C20.885 12.0319 20.7216 11.9992 20.5693 11.9358C20.4169 11.8723 20.2787 11.7793 20.1625 11.6621L24.5875 7.24965C24.704 7.1331 24.7965 6.99474 24.8596 6.84246C24.9226 6.69018 24.9551 6.52697 24.9551 6.36215C24.9551 6.19732 24.9226 6.03411 24.8596 5.88183C24.7965 5.72956 24.704 5.59119 24.5875 5.47465C24.4709 5.3581 24.3326 5.26565 24.1803 5.20257C24.028 5.1395 23.8648 5.10703 23.7 5.10703C23.5352 5.10703 23.3719 5.1395 23.2197 5.20257C23.0674 5.26565 22.929 5.3581 22.8125 5.47465L18.4 9.89965C18.1672 9.66544 18.0365 9.34863 18.0365 9.0184C18.0365 8.68816 18.1672 8.37135 18.4 8.13715L21.9375 4.59965C22.054 4.4831 22.1465 4.34473 22.2096 4.19246C22.2726 4.04018 22.3051 3.87697 22.3051 3.71215C22.3051 3.54732 22.2726 3.38411 22.2096 3.23183C22.1465 3.07956 22.054 2.94119 21.9375 2.82465C21.8209 2.7081 21.6826 2.61565 21.5303 2.55257C21.378 2.4895 21.2148 2.45703 21.05 2.45703C20.8852 2.45703 20.722 2.4895 20.5697 2.55257C20.4174 2.61565 20.279 2.7081 20.1625 2.82465L16.625 6.36215C15.9227 7.06527 15.5283 8.01839 15.5283 9.01215C15.5283 10.0059 15.9227 10.959 16.625 11.6621L15 13.2746L4.66248 2.89965L4.53748 2.82465C4.47358 2.7689 4.40202 2.72259 4.32498 2.68715L4.09998 2.59965L3.94998 2.49965H3.86248H3.61248C3.53796 2.48773 3.46201 2.48773 3.38748 2.49965C3.31181 2.52719 3.2403 2.56505 3.17498 2.61215L2.97498 2.73715H2.88748L2.81248 2.86215C2.75958 2.92814 2.71351 2.99934 2.67498 3.07465C2.63838 3.15087 2.60908 3.23039 2.58748 3.31215C2.58748 3.31215 2.58748 3.39965 2.58748 3.44965C2.28415 5.56391 2.47755 7.71977 3.15233 9.74629C3.82711 11.7728 4.96473 13.6143 6.47498 15.1246L9.77498 18.4121L3.01248 25.1621C2.89532 25.2783 2.80233 25.4166 2.73887 25.5689C2.67541 25.7212 2.64274 25.8846 2.64274 26.0496C2.64274 26.2147 2.67541 26.378 2.73887 26.5304C2.80233 26.6827 2.89532 26.8209 3.01248 26.9371C3.12928 27.053 3.2678 27.1447 3.4201 27.2069C3.5724 27.2691 3.73548 27.3006 3.89998 27.2996C4.06449 27.3006 4.22757 27.2691 4.37987 27.2069C4.53216 27.1447 4.67068 27.053 4.78748 26.9371L12.375 19.4621L15.9125 15.9246L18.4125 13.4246C19.11 14.1296 20.0583 14.5297 21.05 14.5371ZM11.4875 16.8121L8.19998 13.5121C6.39806 11.6856 5.26979 9.30123 4.99998 6.74965L13.2625 14.9996L11.4875 16.8121ZM19.2875 17.5246C19.0521 17.2876 18.7322 17.1538 18.3982 17.1526C18.0641 17.1514 17.7433 17.283 17.5062 17.5184C17.2692 17.7538 17.1354 18.0737 17.1342 18.4077C17.133 18.7418 17.2646 19.0626 17.5 19.2996L25.375 27.1746C25.6137 27.3919 25.9273 27.5084 26.25 27.4996C26.4145 27.5006 26.5776 27.4691 26.7299 27.4069C26.8822 27.3447 27.0207 27.253 27.1375 27.1371C27.2546 27.0209 27.3476 26.8827 27.4111 26.7304C27.4746 26.578 27.5072 26.4147 27.5072 26.2496C27.5072 26.0846 27.4746 25.9212 27.4111 25.7689C27.3476 25.6166 27.2546 25.4784 27.1375 25.3621L19.2875 17.5246Z" fill="white"/>
</svg>
