<svg width="184" height="124" viewBox="0 0 184 124" fill="none" xmlns="http://www.w3.org/2000/svg">
<g filter="url(#filter0_d_467_4873)">
<rect x="12" y="12" width="160" height="100" rx="12" fill="white"/>
</g>
<path d="M49.2895 79.168C49.2895 79.6627 49.1729 80.1293 48.9395 80.568C48.7062 81.0067 48.3329 81.366 47.8195 81.646C47.3062 81.9167 46.6482 82.052 45.8455 82.052H44.0815V86H42.4855V76.27H45.8455C46.5922 76.27 47.2222 76.4007 47.7355 76.662C48.2582 76.914 48.6455 77.2593 48.8975 77.698C49.1589 78.1367 49.2895 78.6267 49.2895 79.168ZM45.8455 80.75C46.4522 80.75 46.9049 80.6147 47.2035 80.344C47.5022 80.064 47.6515 79.672 47.6515 79.168C47.6515 78.104 47.0495 77.572 45.8455 77.572H44.0815V80.75H45.8455ZM55.8657 86L53.6257 82.108H52.4077V86H50.8117V76.27H54.1717C54.9184 76.27 55.5484 76.4007 56.0617 76.662C56.5844 76.9233 56.9717 77.2733 57.2237 77.712C57.4851 78.1507 57.6157 78.6407 57.6157 79.182C57.6157 79.8167 57.4291 80.3953 57.0557 80.918C56.6917 81.4313 56.1271 81.7813 55.3617 81.968L57.7697 86H55.8657ZM52.4077 80.834H54.1717C54.7691 80.834 55.2171 80.6847 55.5157 80.386C55.8237 80.0873 55.9777 79.686 55.9777 79.182C55.9777 78.678 55.8284 78.286 55.5297 78.006C55.2311 77.7167 54.7784 77.572 54.1717 77.572H52.4077V80.834ZM61.2534 77.558V80.414H64.6134V81.716H61.2534V84.698H65.0334V86H59.6574V76.256H65.0334V77.558H61.2534ZM75.3852 76.27L71.7312 86H69.8832L66.2152 76.27H67.9232L70.8072 84.362L73.7052 76.27H75.3852ZM78.3159 76.27V86H76.7199V76.27H78.3159ZM83.6173 86.098C82.964 86.098 82.376 85.986 81.8533 85.762C81.3307 85.5287 80.92 85.202 80.6213 84.782C80.3227 84.362 80.1733 83.872 80.1733 83.312H81.8813C81.9187 83.732 82.082 84.0773 82.3713 84.348C82.67 84.6187 83.0853 84.754 83.6173 84.754C84.168 84.754 84.5973 84.6233 84.9053 84.362C85.2133 84.0913 85.3673 83.746 85.3673 83.326C85.3673 82.9993 85.2693 82.7333 85.0733 82.528C84.8867 82.3227 84.6487 82.164 84.3593 82.052C84.0793 81.94 83.6873 81.8187 83.1833 81.688C82.5487 81.52 82.0307 81.352 81.6293 81.184C81.2373 81.0067 80.9013 80.736 80.6213 80.372C80.3413 80.008 80.2013 79.5227 80.2013 78.916C80.2013 78.356 80.3413 77.866 80.6213 77.446C80.9013 77.026 81.2933 76.704 81.7973 76.48C82.3013 76.256 82.8847 76.144 83.5473 76.144C84.49 76.144 85.26 76.382 85.8573 76.858C86.464 77.3247 86.8 77.9687 86.8653 78.79H85.1013C85.0733 78.4353 84.9053 78.132 84.5973 77.88C84.2893 77.628 83.8833 77.502 83.3793 77.502C82.922 77.502 82.5487 77.6187 82.2593 77.852C81.97 78.0853 81.8253 78.4213 81.8253 78.86C81.8253 79.1587 81.914 79.406 82.0913 79.602C82.278 79.7887 82.5113 79.938 82.7913 80.05C83.0713 80.162 83.454 80.2833 83.9393 80.414C84.5833 80.5913 85.106 80.7687 85.5073 80.946C85.918 81.1233 86.2633 81.3987 86.5433 81.772C86.8327 82.136 86.9773 82.626 86.9773 83.242C86.9773 83.7367 86.842 84.2033 86.5713 84.642C86.31 85.0807 85.9227 85.4353 85.4093 85.706C84.9053 85.9673 84.308 86.098 83.6173 86.098ZM90.4425 76.27V82.472C90.4425 83.2093 90.6339 83.7647 91.0165 84.138C91.4085 84.5113 91.9499 84.698 92.6405 84.698C93.3405 84.698 93.8819 84.5113 94.2645 84.138C94.6565 83.7647 94.8525 83.2093 94.8525 82.472V76.27H96.4485V82.444C96.4485 83.2373 96.2759 83.9093 95.9305 84.46C95.5852 85.0107 95.1232 85.4213 94.5445 85.692C93.9659 85.9627 93.3265 86.098 92.6265 86.098C91.9265 86.098 91.2872 85.9627 90.7085 85.692C90.1392 85.4213 89.6865 85.0107 89.3505 84.46C89.0145 83.9093 88.8465 83.2373 88.8465 82.444V76.27H90.4425ZM104.393 84.012H100.319L99.6186 86H97.9526L101.439 76.256H103.287L106.773 86H105.093L104.393 84.012ZM103.945 82.71L102.363 78.188L100.767 82.71H103.945ZM109.884 84.712H113.174V86H108.288V76.27H109.884V84.712ZM116.105 76.27V86H114.509V76.27H116.105ZM119.74 84.614H124.262V86H117.85V84.754L122.358 77.656H117.85V76.27H124.262V77.516L119.74 84.614ZM131.873 84.012H127.799L127.099 86H125.433L128.919 76.256H130.767L134.253 86H132.573L131.873 84.012ZM131.425 82.71L129.843 78.188L128.247 82.71H131.425ZM140.823 86L138.583 82.108H137.365V86H135.769V76.27H139.129C139.875 76.27 140.505 76.4007 141.019 76.662C141.541 76.9233 141.929 77.2733 142.181 77.712C142.442 78.1507 142.573 78.6407 142.573 79.182C142.573 79.8167 142.386 80.3953 142.013 80.918C141.649 81.4313 141.084 81.7813 140.319 81.968L142.727 86H140.823ZM137.365 80.834H139.129C139.726 80.834 140.174 80.6847 140.473 80.386C140.781 80.0873 140.935 79.686 140.935 79.182C140.935 78.678 140.785 78.286 140.487 78.006C140.188 77.7167 139.735 77.572 139.129 77.572H137.365V80.834Z" fill="#454256"/>
<path d="M100.388 41.0123C100.271 40.8952 100.133 40.8022 99.9808 40.7387C99.8285 40.6753 99.6651 40.6426 99.5001 40.6426C99.335 40.6426 99.1717 40.6753 99.0193 40.7387C98.867 40.8022 98.7288 40.8952 98.6126 41.0123L89.3001 50.3373L85.3876 46.4123C85.2669 46.2958 85.1245 46.2041 84.9684 46.1426C84.8123 46.0811 84.6457 46.051 84.478 46.0539C84.3102 46.0568 84.1447 46.0927 83.9909 46.1595C83.837 46.2264 83.6979 46.3229 83.5813 46.4436C83.4648 46.5642 83.3731 46.7067 83.3116 46.8627C83.2501 47.0188 83.2199 47.1854 83.2228 47.3532C83.2257 47.5209 83.2617 47.6864 83.3285 47.8403C83.3954 47.9941 83.4919 48.1333 83.6126 48.2498L88.4126 53.0498C88.5288 53.167 88.667 53.26 88.8193 53.3234C88.9717 53.3869 89.135 53.4196 89.3001 53.4196C89.4651 53.4196 89.6285 53.3869 89.7808 53.3234C89.9331 53.26 90.0714 53.167 90.1876 53.0498L100.388 42.8498C100.514 42.7328 100.616 42.5907 100.685 42.4326C100.754 42.2745 100.79 42.1037 100.79 41.9311C100.79 41.7584 100.754 41.5877 100.685 41.4296C100.616 41.2714 100.514 41.1294 100.388 41.0123Z" fill="#454256"/>
<defs>
<filter id="filter0_d_467_4873" x="0" y="0" width="184" height="124" filterUnits="userSpaceOnUse" color-interpolation-filters="sRGB">
<feFlood flood-opacity="0" result="BackgroundImageFix"/>
<feColorMatrix in="SourceAlpha" type="matrix" values="0 0 0 0 0 0 0 0 0 0 0 0 0 0 0 0 0 0 127 0" result="hardAlpha"/>
<feOffset/>
<feGaussianBlur stdDeviation="6"/>
<feComposite in2="hardAlpha" operator="out"/>
<feColorMatrix type="matrix" values="0 0 0 0 0 0 0 0 0 0 0 0 0 0 0 0 0 0 0.04 0"/>
<feBlend mode="normal" in2="BackgroundImageFix" result="effect1_dropShadow_467_4873"/>
<feBlend mode="normal" in="SourceGraphic" in2="effect1_dropShadow_467_4873" result="shape"/>
</filter>
</defs>
</svg>
