<svg width="184" height="124" viewBox="0 0 184 124" fill="none" xmlns="http://www.w3.org/2000/svg">
<g filter="url(#filter0_d_467_5227)">
<rect x="12" y="12" width="160" height="100" rx="12" fill="white"/>
</g>
<path d="M34.438 76.27C35.474 76.27 36.3793 76.4707 37.154 76.872C37.938 77.264 38.54 77.8333 38.96 78.58C39.3893 79.3173 39.604 80.1807 39.604 81.17C39.604 82.1593 39.3893 83.018 38.96 83.746C38.54 84.474 37.938 85.034 37.154 85.426C36.3793 85.8087 35.474 86 34.438 86H31.26V76.27H34.438ZM34.438 84.698C35.5766 84.698 36.4493 84.39 37.056 83.774C37.6626 83.158 37.966 82.29 37.966 81.17C37.966 80.0407 37.6626 79.1587 37.056 78.524C36.4493 77.8893 35.5766 77.572 34.438 77.572H32.856V84.698H34.438ZM47.0517 84.012H42.9777L42.2777 86H40.6117L44.0977 76.256H45.9457L49.4317 86H47.7517L47.0517 84.012ZM46.6037 82.71L45.0217 78.188L43.4257 82.71H46.6037ZM57.2335 76.27V77.572H54.6435V86H53.0475V77.572H50.4435V76.27H57.2335ZM63.2878 86.098C62.3825 86.098 61.5471 85.888 60.7818 85.468C60.0258 85.0387 59.4238 84.446 58.9758 83.69C58.5371 82.9247 58.3178 82.066 58.3178 81.114C58.3178 80.162 58.5371 79.308 58.9758 78.552C59.4238 77.796 60.0258 77.208 60.7818 76.788C61.5471 76.3587 62.3825 76.144 63.2878 76.144C64.2025 76.144 65.0378 76.3587 65.7938 76.788C66.5591 77.208 67.1611 77.796 67.5998 78.552C68.0385 79.308 68.2578 80.162 68.2578 81.114C68.2578 82.066 68.0385 82.9247 67.5998 83.69C67.1611 84.446 66.5591 85.0387 65.7938 85.468C65.0378 85.888 64.2025 86.098 63.2878 86.098ZM63.2878 84.712C63.9318 84.712 64.5058 84.5673 65.0098 84.278C65.5138 83.9793 65.9058 83.5593 66.1858 83.018C66.4751 82.4673 66.6198 81.8327 66.6198 81.114C66.6198 80.3953 66.4751 79.7653 66.1858 79.224C65.9058 78.6827 65.5138 78.2673 65.0098 77.978C64.5058 77.6887 63.9318 77.544 63.2878 77.544C62.6438 77.544 62.0698 77.6887 61.5658 77.978C61.0618 78.2673 60.6651 78.6827 60.3758 79.224C60.0958 79.7653 59.9558 80.3953 59.9558 81.114C59.9558 81.8327 60.0958 82.4673 60.3758 83.018C60.6651 83.5593 61.0618 83.9793 61.5658 84.278C62.0698 84.5673 62.6438 84.712 63.2878 84.712ZM73.0343 86.098C72.381 86.098 71.793 85.986 71.2703 85.762C70.7477 85.5287 70.337 85.202 70.0383 84.782C69.7397 84.362 69.5903 83.872 69.5903 83.312H71.2983C71.3357 83.732 71.499 84.0773 71.7883 84.348C72.087 84.6187 72.5023 84.754 73.0343 84.754C73.585 84.754 74.0143 84.6233 74.3223 84.362C74.6303 84.0913 74.7843 83.746 74.7843 83.326C74.7843 82.9993 74.6863 82.7333 74.4903 82.528C74.3037 82.3227 74.0657 82.164 73.7763 82.052C73.4963 81.94 73.1043 81.8187 72.6003 81.688C71.9657 81.52 71.4477 81.352 71.0463 81.184C70.6543 81.0067 70.3183 80.736 70.0383 80.372C69.7583 80.008 69.6183 79.5227 69.6183 78.916C69.6183 78.356 69.7583 77.866 70.0383 77.446C70.3183 77.026 70.7103 76.704 71.2143 76.48C71.7183 76.256 72.3017 76.144 72.9643 76.144C73.907 76.144 74.677 76.382 75.2743 76.858C75.881 77.3247 76.217 77.9687 76.2823 78.79H74.5183C74.4903 78.4353 74.3223 78.132 74.0143 77.88C73.7063 77.628 73.3003 77.502 72.7963 77.502C72.339 77.502 71.9657 77.6187 71.6763 77.852C71.387 78.0853 71.2423 78.4213 71.2423 78.86C71.2423 79.1587 71.331 79.406 71.5083 79.602C71.695 79.7887 71.9283 79.938 72.2083 80.05C72.4883 80.162 72.871 80.2833 73.3563 80.414C74.0003 80.5913 74.523 80.7687 74.9243 80.946C75.335 81.1233 75.6803 81.3987 75.9603 81.772C76.2497 82.136 76.3943 82.626 76.3943 83.242C76.3943 83.7367 76.259 84.2033 75.9883 84.642C75.727 85.0807 75.3397 85.4353 74.8263 85.706C74.3223 85.9673 73.725 86.098 73.0343 86.098ZM85.0923 76.27C86.1283 76.27 87.0336 76.4707 87.8083 76.872C88.5923 77.264 89.1943 77.8333 89.6143 78.58C90.0436 79.3173 90.2583 80.1807 90.2583 81.17C90.2583 82.1593 90.0436 83.018 89.6143 83.746C89.1943 84.474 88.5923 85.034 87.8083 85.426C87.0336 85.8087 86.1283 86 85.0923 86H81.9143V76.27H85.0923ZM85.0923 84.698C86.2309 84.698 87.1036 84.39 87.7103 83.774C88.3169 83.158 88.6203 82.29 88.6203 81.17C88.6203 80.0407 88.3169 79.1587 87.7103 78.524C87.1036 77.8893 86.2309 77.572 85.0923 77.572H83.5103V84.698H85.0923ZM93.436 77.558V80.414H96.796V81.716H93.436V84.698H97.216V86H91.84V76.256H97.216V77.558H93.436ZM107.873 86L105.633 82.108H104.415V86H102.819V76.27H106.179C106.925 76.27 107.555 76.4007 108.069 76.662C108.591 76.9233 108.979 77.2733 109.231 77.712C109.492 78.1507 109.623 78.6407 109.623 79.182C109.623 79.8167 109.436 80.3953 109.063 80.918C108.699 81.4313 108.134 81.7813 107.369 81.968L109.777 86H107.873ZM104.415 80.834H106.179C106.776 80.834 107.224 80.6847 107.523 80.386C107.831 80.0873 107.985 79.686 107.985 79.182C107.985 78.678 107.835 78.286 107.537 78.006C107.238 77.7167 106.785 77.572 106.179 77.572H104.415V80.834ZM113.26 77.558V80.414H116.62V81.716H113.26V84.698H117.04V86H111.664V76.256H117.04V77.558H113.26ZM118.474 81.114C118.474 80.162 118.693 79.308 119.132 78.552C119.58 77.796 120.182 77.208 120.938 76.788C121.703 76.3587 122.539 76.144 123.444 76.144C124.48 76.144 125.399 76.4007 126.202 76.914C127.014 77.418 127.602 78.1367 127.966 79.07H126.048C125.796 78.5567 125.446 78.174 124.998 77.922C124.55 77.67 124.032 77.544 123.444 77.544C122.8 77.544 122.226 77.6887 121.722 77.978C121.218 78.2673 120.821 78.6827 120.532 79.224C120.252 79.7653 120.112 80.3953 120.112 81.114C120.112 81.8327 120.252 82.4627 120.532 83.004C120.821 83.5453 121.218 83.9653 121.722 84.264C122.226 84.5533 122.8 84.698 123.444 84.698C124.032 84.698 124.55 84.572 124.998 84.32C125.446 84.068 125.796 83.6853 126.048 83.172H127.966C127.602 84.1053 127.014 84.824 126.202 85.328C125.399 85.832 124.48 86.084 123.444 86.084C122.529 86.084 121.694 85.874 120.938 85.454C120.182 85.0247 119.58 84.432 119.132 83.676C118.693 82.92 118.474 82.066 118.474 81.114ZM131.43 77.558V80.414H134.79V81.716H131.43V84.698H135.21V86H129.834V76.256H135.21V77.558H131.43ZM143.462 76.27V77.572H140.872V86H139.276V77.572H136.672V76.27H143.462ZM150.944 84.012H146.87L146.17 86H144.504L147.99 76.256H149.838L153.324 86H151.644L150.944 84.012ZM150.496 82.71L148.914 78.188L147.318 82.71H150.496Z" fill="#383838"/>
<path d="M98.0501 46.5371C98.5508 46.5433 99.0477 46.4492 99.5114 46.2603C99.9751 46.0714 100.396 45.7915 100.75 45.4371L104.288 41.8996C104.52 41.6654 104.651 41.3486 104.651 41.0184C104.651 40.6882 104.52 40.3713 104.288 40.1371C104.171 40.02 104.033 39.927 103.881 39.8635C103.729 39.8001 103.565 39.7674 103.4 39.7674C103.235 39.7674 103.072 39.8001 102.919 39.8635C102.767 39.927 102.629 40.02 102.513 40.1371L98.9376 43.6621C98.8214 43.7793 98.6832 43.8723 98.5308 43.9358C98.3785 43.9992 98.2151 44.0319 98.0501 44.0319C97.8851 44.0319 97.7217 43.9992 97.5694 43.9358C97.4171 43.8723 97.2788 43.7793 97.1626 43.6621L101.588 39.2496C101.704 39.1331 101.797 38.9947 101.86 38.8425C101.923 38.6902 101.955 38.527 101.955 38.3621C101.955 38.1973 101.923 38.0341 101.86 37.8818C101.797 37.7296 101.704 37.5912 101.588 37.4746C101.471 37.3581 101.333 37.2656 101.18 37.2026C101.028 37.1395 100.865 37.107 100.7 37.107C100.535 37.107 100.372 37.1395 100.22 37.2026C100.068 37.2656 99.9292 37.3581 99.8126 37.4746L95.4001 41.8996C95.1673 41.6654 95.0366 41.3486 95.0366 41.0184C95.0366 40.6882 95.1673 40.3713 95.4001 40.1371L98.9376 36.5996C99.0542 36.4831 99.1466 36.3447 99.2097 36.1925C99.2728 36.0402 99.3052 35.877 99.3052 35.7121C99.3052 35.5473 99.2728 35.3841 99.2097 35.2318C99.1466 35.0796 99.0542 34.9412 98.9376 34.8246C98.8211 34.7081 98.6827 34.6156 98.5304 34.5526C98.3781 34.4895 98.2149 34.457 98.0501 34.457C97.8853 34.457 97.7221 34.4895 97.5698 34.5526C97.4175 34.6156 97.2792 34.7081 97.1626 34.8246L93.6251 38.3621C92.9229 39.0653 92.5284 40.0184 92.5284 41.0121C92.5284 42.0059 92.9229 42.959 93.6251 43.6621L92.0001 45.2746L81.6626 34.8996L81.5376 34.8246C81.4737 34.7689 81.4021 34.7226 81.3251 34.6871L81.1001 34.5996L80.9501 34.4996H80.8626H80.6126C80.5381 34.4877 80.4621 34.4877 80.3876 34.4996C80.3119 34.5272 80.2404 34.565 80.1751 34.6121L79.9751 34.7371H79.8876L79.8126 34.8621C79.7597 34.9281 79.7136 34.9993 79.6751 35.0746C79.6385 35.1509 79.6092 35.2304 79.5876 35.3121C79.5876 35.3121 79.5876 35.3996 79.5876 35.4496C79.2843 37.5639 79.4777 39.7198 80.1525 41.7463C80.8272 43.7728 81.9649 45.6143 83.4751 47.1246L86.7751 50.4121L80.0126 57.1621C79.8954 57.2783 79.8025 57.4166 79.739 57.5689C79.6755 57.7212 79.6429 57.8846 79.6429 58.0496C79.6429 58.2147 79.6755 58.378 79.739 58.5304C79.8025 58.6827 79.8954 58.8209 80.0126 58.9371C80.1294 59.053 80.2679 59.1447 80.4202 59.2069C80.5725 59.2691 80.7356 59.3006 80.9001 59.2996C81.0646 59.3006 81.2277 59.2691 81.38 59.2069C81.5323 59.1447 81.6708 59.053 81.7876 58.9371L89.3751 51.4621L92.9126 47.9246L95.4126 45.4246C96.1101 46.1296 97.0584 46.5297 98.0501 46.5371ZM88.4876 48.8121L85.2001 45.5121C83.3982 43.6856 82.2699 41.3012 82.0001 38.7496L90.2626 46.9996L88.4876 48.8121ZM96.2876 49.5246C96.0522 49.2876 95.7323 49.1538 95.3983 49.1526C95.0642 49.1514 94.7434 49.283 94.5064 49.5184C94.2693 49.7538 94.1355 50.0737 94.1343 50.4077C94.1332 50.7418 94.2647 51.0626 94.5001 51.2996L102.375 59.1746C102.614 59.3919 102.927 59.5084 103.25 59.4996C103.415 59.5006 103.578 59.4691 103.73 59.4069C103.882 59.3447 104.021 59.253 104.138 59.1371C104.255 59.0209 104.348 58.8827 104.411 58.7304C104.475 58.578 104.507 58.4147 104.507 58.2496C104.507 58.0846 104.475 57.9212 104.411 57.7689C104.348 57.6166 104.255 57.4784 104.138 57.3621L96.2876 49.5246Z" fill="#383838"/>
<defs>
<filter id="filter0_d_467_5227" x="0" y="0" width="184" height="124" filterUnits="userSpaceOnUse" color-interpolation-filters="sRGB">
<feFlood flood-opacity="0" result="BackgroundImageFix"/>
<feColorMatrix in="SourceAlpha" type="matrix" values="0 0 0 0 0 0 0 0 0 0 0 0 0 0 0 0 0 0 127 0" result="hardAlpha"/>
<feOffset/>
<feGaussianBlur stdDeviation="6"/>
<feComposite in2="hardAlpha" operator="out"/>
<feColorMatrix type="matrix" values="0 0 0 0 0 0 0 0 0 0 0 0 0 0 0 0 0 0 0.04 0"/>
<feBlend mode="normal" in2="BackgroundImageFix" result="effect1_dropShadow_467_5227"/>
<feBlend mode="normal" in="SourceGraphic" in2="effect1_dropShadow_467_5227" result="shape"/>
</filter>
</defs>
</svg>
