<svg width="184" height="124" viewBox="0 0 184 124" fill="none" xmlns="http://www.w3.org/2000/svg">
<g filter="url(#filter0_d_467_4866)">
<rect x="12" y="12" width="160" height="100" rx="12" fill="white"/>
</g>
<path d="M29.8355 76.27V86H28.2395V76.27H29.8355ZM42.1789 76.27V86H40.5829V79.336L37.6149 86H36.5089L33.5269 79.336V86H31.9309V76.27H33.6529L37.0689 83.9L40.4709 76.27H42.1789ZM50.1426 84.012H46.0686L45.3686 86H43.7026L47.1886 76.256H49.0366L52.5226 86H50.8426L50.1426 84.012ZM49.6946 82.71L48.1126 78.188L46.5166 82.71H49.6946ZM61.0803 79.07C60.8283 78.5847 60.4783 78.2207 60.0303 77.978C59.5823 77.726 59.0643 77.6 58.4763 77.6C57.8323 77.6 57.2583 77.7447 56.7543 78.034C56.2503 78.3233 55.8536 78.734 55.5643 79.266C55.2843 79.798 55.1443 80.414 55.1443 81.114C55.1443 81.814 55.2843 82.4347 55.5643 82.976C55.8536 83.508 56.2503 83.9187 56.7543 84.208C57.2583 84.4973 57.8323 84.642 58.4763 84.642C59.3443 84.642 60.0489 84.3993 60.5903 83.914C61.1316 83.4287 61.4629 82.7707 61.5843 81.94H57.9303V80.666H63.2923V81.912C63.1896 82.668 62.9189 83.3633 62.4803 83.998C62.0509 84.6327 61.4863 85.1413 60.7863 85.524C60.0956 85.8973 59.3256 86.084 58.4763 86.084C57.5616 86.084 56.7263 85.874 55.9703 85.454C55.2143 85.0247 54.6123 84.432 54.1643 83.676C53.7256 82.92 53.5063 82.066 53.5063 81.114C53.5063 80.162 53.7256 79.308 54.1643 78.552C54.6123 77.796 55.2143 77.208 55.9703 76.788C56.7356 76.3587 57.5709 76.144 58.4763 76.144C59.5123 76.144 60.4316 76.4007 61.2343 76.914C62.0463 77.418 62.6343 78.1367 62.9983 79.07H61.0803ZM66.4624 77.558V80.414H69.8224V81.716H66.4624V84.698H70.2424V86H64.8664V76.256H70.2424V77.558H66.4624ZM80.2022 86H78.6062L73.8042 78.734V86H72.2082V76.256H73.8042L78.6062 83.508V76.256H80.2022V86ZM89.1128 76.27C90.1488 76.27 91.0541 76.4707 91.8288 76.872C92.6128 77.264 93.2148 77.8333 93.6348 78.58C94.0641 79.3173 94.2788 80.1807 94.2788 81.17C94.2788 82.1593 94.0641 83.018 93.6348 83.746C93.2148 84.474 92.6128 85.034 91.8288 85.426C91.0541 85.8087 90.1488 86 89.1128 86H85.9348V76.27H89.1128ZM89.1128 84.698C90.2514 84.698 91.1241 84.39 91.7308 83.774C92.3374 83.158 92.6408 82.29 92.6408 81.17C92.6408 80.0407 92.3374 79.1587 91.7308 78.524C91.1241 77.8893 90.2514 77.572 89.1128 77.572H87.5308V84.698H89.1128ZM97.4565 77.558V80.414H100.817V81.716H97.4565V84.698H101.237V86H95.8605V76.256H101.237V77.558H97.4565ZM111.893 86L109.653 82.108H108.435V86H106.839V76.27H110.199C110.946 76.27 111.576 76.4007 112.089 76.662C112.612 76.9233 112.999 77.2733 113.251 77.712C113.512 78.1507 113.643 78.6407 113.643 79.182C113.643 79.8167 113.456 80.3953 113.083 80.918C112.719 81.4313 112.154 81.7813 111.389 81.968L113.797 86H111.893ZM108.435 80.834H110.199C110.796 80.834 111.244 80.6847 111.543 80.386C111.851 80.0873 112.005 79.686 112.005 79.182C112.005 78.678 111.856 78.286 111.557 78.006C111.258 77.7167 110.806 77.572 110.199 77.572H108.435V80.834ZM117.281 77.558V80.414H120.641V81.716H117.281V84.698H121.061V86H115.685V76.256H121.061V77.558H117.281ZM122.495 81.114C122.495 80.162 122.714 79.308 123.153 78.552C123.601 77.796 124.203 77.208 124.959 76.788C125.724 76.3587 126.559 76.144 127.465 76.144C128.501 76.144 129.42 76.4007 130.223 76.914C131.035 77.418 131.623 78.1367 131.987 79.07H130.069C129.817 78.5567 129.467 78.174 129.019 77.922C128.571 77.67 128.053 77.544 127.465 77.544C126.821 77.544 126.247 77.6887 125.743 77.978C125.239 78.2673 124.842 78.6827 124.553 79.224C124.273 79.7653 124.133 80.3953 124.133 81.114C124.133 81.8327 124.273 82.4627 124.553 83.004C124.842 83.5453 125.239 83.9653 125.743 84.264C126.247 84.5533 126.821 84.698 127.465 84.698C128.053 84.698 128.571 84.572 129.019 84.32C129.467 84.068 129.817 83.6853 130.069 83.172H131.987C131.623 84.1053 131.035 84.824 130.223 85.328C129.42 85.832 128.501 86.084 127.465 86.084C126.55 86.084 125.715 85.874 124.959 85.454C124.203 85.0247 123.601 84.432 123.153 83.676C122.714 82.92 122.495 82.066 122.495 81.114ZM135.451 77.558V80.414H138.811V81.716H135.451V84.698H139.231V86H133.855V76.256H139.231V77.558H135.451ZM147.482 76.27V77.572H144.892V86H143.296V77.572H140.692V76.27H147.482ZM154.965 84.012H150.891L150.191 86H148.525L152.011 76.256H153.859L157.345 86H155.665L154.965 84.012ZM154.517 82.71L152.935 78.188L151.339 82.71H154.517Z" fill="#454256"/>
<path d="M100.75 36.5H83.25C82.2554 36.5 81.3016 36.8951 80.5983 37.5983C79.8951 38.3016 79.5 39.2554 79.5 40.25V57.75C79.5 58.7446 79.8951 59.6984 80.5983 60.4017C81.3016 61.1049 82.2554 61.5 83.25 61.5H100.75C100.956 61.4971 101.161 61.4762 101.362 61.4375L101.738 61.35H101.825H101.888L102.35 61.175L102.513 61.0875C102.638 61.0125 102.775 60.95 102.9 60.8625C103.067 60.7397 103.226 60.6061 103.375 60.4625L103.462 60.35C103.585 60.2256 103.698 60.0919 103.8 59.95L103.913 59.7875C104 59.6483 104.075 59.502 104.137 59.35C104.172 59.29 104.201 59.2273 104.225 59.1625C104.288 59.0125 104.325 58.85 104.375 58.6875V58.5C104.446 58.2558 104.488 58.004 104.5 57.75V40.25C104.5 39.2554 104.105 38.3016 103.402 37.5983C102.698 36.8951 101.745 36.5 100.75 36.5ZM83.25 59C82.9185 59 82.6005 58.8683 82.3661 58.6339C82.1317 58.3995 82 58.0815 82 57.75V52.3625L86.1125 48.2375C86.2287 48.1203 86.367 48.0273 86.5193 47.9639C86.6716 47.9004 86.835 47.8678 87 47.8678C87.165 47.8678 87.3284 47.9004 87.4807 47.9639C87.633 48.0273 87.7713 48.1203 87.8875 48.2375L98.6375 59H83.25ZM102 57.75C101.999 57.9041 101.969 58.0567 101.913 58.2C101.884 58.2609 101.85 58.3195 101.812 58.375C101.779 58.4279 101.741 58.4781 101.7 58.525L95.0125 51.8375L96.1125 50.7375C96.2287 50.6203 96.367 50.5273 96.5193 50.4639C96.6716 50.4004 96.835 50.3678 97 50.3678C97.165 50.3678 97.3284 50.4004 97.4807 50.4639C97.633 50.5273 97.7713 50.6203 97.8875 50.7375L102 54.8625V57.75ZM102 51.325L99.65 49C98.9347 48.3212 97.9861 47.9428 97 47.9428C96.0139 47.9428 95.0653 48.3212 94.35 49L93.25 50.1L89.65 46.5C88.9347 45.8212 87.9861 45.4428 87 45.4428C86.0139 45.4428 85.0653 45.8212 84.35 46.5L82 48.825V40.25C82 39.9185 82.1317 39.6005 82.3661 39.3661C82.6005 39.1317 82.9185 39 83.25 39H100.75C101.082 39 101.399 39.1317 101.634 39.3661C101.868 39.6005 102 39.9185 102 40.25V51.325Z" fill="#454256"/>
<defs>
<filter id="filter0_d_467_4866" x="0" y="0" width="184" height="124" filterUnits="userSpaceOnUse" color-interpolation-filters="sRGB">
<feFlood flood-opacity="0" result="BackgroundImageFix"/>
<feColorMatrix in="SourceAlpha" type="matrix" values="0 0 0 0 0 0 0 0 0 0 0 0 0 0 0 0 0 0 127 0" result="hardAlpha"/>
<feOffset/>
<feGaussianBlur stdDeviation="6"/>
<feComposite in2="hardAlpha" operator="out"/>
<feColorMatrix type="matrix" values="0 0 0 0 0 0 0 0 0 0 0 0 0 0 0 0 0 0 0.04 0"/>
<feBlend mode="normal" in2="BackgroundImageFix" result="effect1_dropShadow_467_4866"/>
<feBlend mode="normal" in="SourceGraphic" in2="effect1_dropShadow_467_4866" result="shape"/>
</filter>
</defs>
</svg>
