<svg width="184" height="124" viewBox="0 0 184 124" fill="none" xmlns="http://www.w3.org/2000/svg">
<g filter="url(#filter0_d_467_4859)">
<rect x="12" y="12" width="160" height="100" rx="12" fill="white"/>
</g>
<path d="M44.2104 79.168C44.2104 79.6627 44.0938 80.1293 43.8604 80.568C43.6271 81.0067 43.2538 81.366 42.7404 81.646C42.2271 81.9167 41.5691 82.052 40.7664 82.052H39.0024V86H37.4064V76.27H40.7664C41.5131 76.27 42.1431 76.4007 42.6564 76.662C43.1791 76.914 43.5664 77.2593 43.8184 77.698C44.0798 78.1367 44.2104 78.6267 44.2104 79.168ZM40.7664 80.75C41.3731 80.75 41.8258 80.6147 42.1244 80.344C42.4231 80.064 42.5724 79.672 42.5724 79.168C42.5724 78.104 41.9704 77.572 40.7664 77.572H39.0024V80.75H40.7664ZM50.7866 86L48.5466 82.108H47.3286V86H45.7326V76.27H49.0926C49.8393 76.27 50.4693 76.4007 50.9826 76.662C51.5053 76.9233 51.8926 77.2733 52.1446 77.712C52.406 78.1507 52.5366 78.6407 52.5366 79.182C52.5366 79.8167 52.35 80.3953 51.9766 80.918C51.6126 81.4313 51.048 81.7813 50.2826 81.968L52.6906 86H50.7866ZM47.3286 80.834H49.0926C49.69 80.834 50.138 80.6847 50.4366 80.386C50.7446 80.0873 50.8986 79.686 50.8986 79.182C50.8986 78.678 50.7493 78.286 50.4506 78.006C50.152 77.7167 49.6993 77.572 49.0926 77.572H47.3286V80.834ZM59.0163 86.098C58.111 86.098 57.2757 85.888 56.5103 85.468C55.7543 85.0387 55.1523 84.446 54.7043 83.69C54.2657 82.9247 54.0463 82.066 54.0463 81.114C54.0463 80.162 54.2657 79.308 54.7043 78.552C55.1523 77.796 55.7543 77.208 56.5103 76.788C57.2757 76.3587 58.111 76.144 59.0163 76.144C59.931 76.144 60.7663 76.3587 61.5223 76.788C62.2877 77.208 62.8897 77.796 63.3283 78.552C63.767 79.308 63.9863 80.162 63.9863 81.114C63.9863 82.066 63.767 82.9247 63.3283 83.69C62.8897 84.446 62.2877 85.0387 61.5223 85.468C60.7663 85.888 59.931 86.098 59.0163 86.098ZM59.0163 84.712C59.6603 84.712 60.2343 84.5673 60.7383 84.278C61.2423 83.9793 61.6343 83.5593 61.9143 83.018C62.2037 82.4673 62.3483 81.8327 62.3483 81.114C62.3483 80.3953 62.2037 79.7653 61.9143 79.224C61.6343 78.6827 61.2423 78.2673 60.7383 77.978C60.2343 77.6887 59.6603 77.544 59.0163 77.544C58.3723 77.544 57.7983 77.6887 57.2943 77.978C56.7903 78.2673 56.3937 78.6827 56.1043 79.224C55.8243 79.7653 55.6843 80.3953 55.6843 81.114C55.6843 81.8327 55.8243 82.4673 56.1043 83.018C56.3937 83.5593 56.7903 83.9793 57.2943 84.278C57.7983 84.5673 58.3723 84.712 59.0163 84.712ZM65.0248 81.114C65.0248 80.162 65.2442 79.308 65.6828 78.552C66.1308 77.796 66.7328 77.208 67.4888 76.788C68.2542 76.3587 69.0895 76.144 69.9948 76.144C71.0308 76.144 71.9502 76.4007 72.7528 76.914C73.5648 77.418 74.1528 78.1367 74.5168 79.07H72.5988C72.3468 78.5567 71.9968 78.174 71.5488 77.922C71.1008 77.67 70.5828 77.544 69.9948 77.544C69.3508 77.544 68.7768 77.6887 68.2728 77.978C67.7688 78.2673 67.3722 78.6827 67.0828 79.224C66.8028 79.7653 66.6628 80.3953 66.6628 81.114C66.6628 81.8327 66.8028 82.4627 67.0828 83.004C67.3722 83.5453 67.7688 83.9653 68.2728 84.264C68.7768 84.5533 69.3508 84.698 69.9948 84.698C70.5828 84.698 71.1008 84.572 71.5488 84.32C71.9968 84.068 72.3468 83.6853 72.5988 83.172H74.5168C74.1528 84.1053 73.5648 84.824 72.7528 85.328C71.9502 85.832 71.0308 86.084 69.9948 86.084C69.0802 86.084 68.2448 85.874 67.4888 85.454C66.7328 85.0247 66.1308 84.432 65.6828 83.676C65.2442 82.92 65.0248 82.066 65.0248 81.114ZM77.981 77.558V80.414H81.341V81.716H77.981V84.698H81.761V86H76.385V76.256H81.761V77.558H77.981ZM86.9048 76.27C87.9408 76.27 88.8461 76.4707 89.6208 76.872C90.4048 77.264 91.0068 77.8333 91.4268 78.58C91.8561 79.3173 92.0708 80.1807 92.0708 81.17C92.0708 82.1593 91.8561 83.018 91.4268 83.746C91.0068 84.474 90.4048 85.034 89.6208 85.426C88.8461 85.8087 87.9408 86 86.9048 86H83.7268V76.27H86.9048ZM86.9048 84.698C88.0434 84.698 88.9161 84.39 89.5228 83.774C90.1294 83.158 90.4328 82.29 90.4328 81.17C90.4328 80.0407 90.1294 79.1587 89.5228 78.524C88.9161 77.8893 88.0434 77.572 86.9048 77.572H85.3228V84.698H86.9048ZM95.2485 76.27V86H93.6525V76.27H95.2485ZM107.592 76.27V86H105.996V79.336L103.028 86H101.922L98.9399 79.336V86H97.3439V76.27H99.0659L102.482 83.9L105.884 76.27H107.592ZM111.286 76.27V86H109.69V76.27H111.286ZM114.977 77.558V80.414H118.337V81.716H114.977V84.698H118.757V86H113.381V76.256H118.757V77.558H114.977ZM128.717 86H127.121L122.319 78.734V86H120.723V76.256H122.319L127.121 83.508V76.256H128.717V86ZM137.099 76.27V77.572H134.509V86H132.913V77.572H130.309V76.27H137.099ZM143.153 86.098C142.248 86.098 141.412 85.888 140.647 85.468C139.891 85.0387 139.289 84.446 138.841 83.69C138.402 82.9247 138.183 82.066 138.183 81.114C138.183 80.162 138.402 79.308 138.841 78.552C139.289 77.796 139.891 77.208 140.647 76.788C141.412 76.3587 142.248 76.144 143.153 76.144C144.068 76.144 144.903 76.3587 145.659 76.788C146.424 77.208 147.026 77.796 147.465 78.552C147.904 79.308 148.123 80.162 148.123 81.114C148.123 82.066 147.904 82.9247 147.465 83.69C147.026 84.446 146.424 85.0387 145.659 85.468C144.903 85.888 144.068 86.098 143.153 86.098ZM143.153 84.712C143.797 84.712 144.371 84.5673 144.875 84.278C145.379 83.9793 145.771 83.5593 146.051 83.018C146.34 82.4673 146.485 81.8327 146.485 81.114C146.485 80.3953 146.34 79.7653 146.051 79.224C145.771 78.6827 145.379 78.2673 144.875 77.978C144.371 77.6887 143.797 77.544 143.153 77.544C142.509 77.544 141.935 77.6887 141.431 77.978C140.927 78.2673 140.53 78.6827 140.241 79.224C139.961 79.7653 139.821 80.3953 139.821 81.114C139.821 81.8327 139.961 82.4673 140.241 83.018C140.53 83.5593 140.927 83.9793 141.431 84.278C141.935 84.5673 142.509 84.712 143.153 84.712Z" fill="#454256"/>
<path d="M105.5 41.05C105.501 40.8855 105.469 40.7224 105.407 40.5701C105.345 40.4178 105.253 40.2793 105.138 40.1625L99.8375 34.8625C99.7207 34.7467 99.5822 34.655 99.4299 34.5928C99.2776 34.5306 99.1145 34.4991 98.95 34.5C98.7855 34.4991 98.6224 34.5306 98.4701 34.5928C98.3178 34.655 98.1793 34.7467 98.0625 34.8625L94.525 38.4L80.8625 52.0625C80.7467 52.1793 80.655 52.3178 80.5928 52.4701C80.5306 52.6224 80.4991 52.7855 80.5 52.95V58.25C80.5 58.5815 80.6317 58.8995 80.8661 59.1339C81.1006 59.3683 81.4185 59.5 81.75 59.5H87.05C87.2249 59.5095 87.3999 59.4822 87.5635 59.4197C87.7272 59.3573 87.8759 59.2611 88 59.1375L101.588 45.475L105.138 42C105.252 41.8789 105.345 41.7394 105.413 41.5875C105.425 41.4879 105.425 41.3872 105.413 41.2875C105.418 41.2293 105.418 41.1707 105.413 41.1125L105.5 41.05ZM86.5375 57H83V53.4625L95.4125 41.05L98.95 44.5875L86.5375 57ZM100.713 42.825L97.175 39.2875L98.95 37.525L102.475 41.05L100.713 42.825Z" fill="#454256"/>
<defs>
<filter id="filter0_d_467_4859" x="0" y="0" width="184" height="124" filterUnits="userSpaceOnUse" color-interpolation-filters="sRGB">
<feFlood flood-opacity="0" result="BackgroundImageFix"/>
<feColorMatrix in="SourceAlpha" type="matrix" values="0 0 0 0 0 0 0 0 0 0 0 0 0 0 0 0 0 0 127 0" result="hardAlpha"/>
<feOffset/>
<feGaussianBlur stdDeviation="6"/>
<feComposite in2="hardAlpha" operator="out"/>
<feColorMatrix type="matrix" values="0 0 0 0 0 0 0 0 0 0 0 0 0 0 0 0 0 0 0.04 0"/>
<feBlend mode="normal" in2="BackgroundImageFix" result="effect1_dropShadow_467_4859"/>
<feBlend mode="normal" in="SourceGraphic" in2="effect1_dropShadow_467_4859" result="shape"/>
</filter>
</defs>
</svg>
