<svg width="184" height="124" viewBox="0 0 184 124" fill="none" xmlns="http://www.w3.org/2000/svg">
<g filter="url(#filter0_d_467_4852)">
<rect x="12" y="12" width="160" height="100" rx="12" fill="white"/>
</g>
<path d="M46.8765 76.27V86H45.2805V76.27H46.8765ZM56.9659 86H55.3699L50.5679 78.734V86H48.9719V76.256H50.5679L55.3699 83.508V76.256H56.9659V86ZM66.1037 79.07C65.8517 78.5847 65.5017 78.2207 65.0537 77.978C64.6057 77.726 64.0877 77.6 63.4997 77.6C62.8557 77.6 62.2817 77.7447 61.7777 78.034C61.2737 78.3233 60.8771 78.734 60.5877 79.266C60.3077 79.798 60.1677 80.414 60.1677 81.114C60.1677 81.814 60.3077 82.4347 60.5877 82.976C60.8771 83.508 61.2737 83.9187 61.7777 84.208C62.2817 84.4973 62.8557 84.642 63.4997 84.642C64.3677 84.642 65.0724 84.3993 65.6137 83.914C66.1551 83.4287 66.4864 82.7707 66.6077 81.94H62.9537V80.666H68.3157V81.912C68.2131 82.668 67.9424 83.3633 67.5037 83.998C67.0744 84.6327 66.5097 85.1413 65.8097 85.524C65.1191 85.8973 64.3491 86.084 63.4997 86.084C62.5851 86.084 61.7497 85.874 60.9937 85.454C60.2377 85.0247 59.6357 84.432 59.1877 83.676C58.7491 82.92 58.5297 82.066 58.5297 81.114C58.5297 80.162 58.7491 79.308 59.1877 78.552C59.6357 77.796 60.2377 77.208 60.9937 76.788C61.7591 76.3587 62.5944 76.144 63.4997 76.144C64.5357 76.144 65.4551 76.4007 66.2577 76.914C67.0697 77.418 67.6577 78.1367 68.0217 79.07H66.1037ZM74.9438 86L72.7038 82.108H71.4858V86H69.8898V76.27H73.2498C73.9965 76.27 74.6265 76.4007 75.1398 76.662C75.6625 76.9233 76.0498 77.2733 76.3018 77.712C76.5632 78.1507 76.6938 78.6407 76.6938 79.182C76.6938 79.8167 76.5072 80.3953 76.1338 80.918C75.7698 81.4313 75.2052 81.7813 74.4398 81.968L76.8478 86H74.9438ZM71.4858 80.834H73.2498C73.8472 80.834 74.2952 80.6847 74.5938 80.386C74.9018 80.0873 75.0558 79.686 75.0558 79.182C75.0558 78.678 74.9065 78.286 74.6078 78.006C74.3092 77.7167 73.8565 77.572 73.2498 77.572H71.4858V80.834ZM80.3315 77.558V80.414H83.6915V81.716H80.3315V84.698H84.1115V86H78.7355V76.256H84.1115V77.558H80.3315ZM89.2553 76.27C90.2913 76.27 91.1967 76.4707 91.9713 76.872C92.7553 77.264 93.3573 77.8333 93.7773 78.58C94.2067 79.3173 94.4213 80.1807 94.4213 81.17C94.4213 82.1593 94.2067 83.018 93.7773 83.746C93.3573 84.474 92.7553 85.034 91.9713 85.426C91.1967 85.8087 90.2913 86 89.2553 86H86.0773V76.27H89.2553ZM89.2553 84.698C90.394 84.698 91.2667 84.39 91.8733 83.774C92.48 83.158 92.7833 82.29 92.7833 81.17C92.7833 80.0407 92.48 79.1587 91.8733 78.524C91.2667 77.8893 90.394 77.572 89.2553 77.572H87.6733V84.698H89.2553ZM97.5991 76.27V86H96.0031V76.27H97.5991ZM101.291 77.558V80.414H104.651V81.716H101.291V84.698H105.071V86H99.6945V76.256H105.071V77.558H101.291ZM115.03 86H113.434L108.632 78.734V86H107.036V76.256H108.632L113.434 83.508V76.256H115.03V86ZM123.412 76.27V77.572H120.822V86H119.226V77.572H116.622V76.27H123.412ZM126.625 77.558V80.414H129.985V81.716H126.625V84.698H130.405V86H125.029V76.256H130.405V77.558H126.625ZM135.576 86.098C134.923 86.098 134.335 85.986 133.812 85.762C133.29 85.5287 132.879 85.202 132.58 84.782C132.282 84.362 132.132 83.872 132.132 83.312H133.84C133.878 83.732 134.041 84.0773 134.33 84.348C134.629 84.6187 135.044 84.754 135.576 84.754C136.127 84.754 136.556 84.6233 136.864 84.362C137.172 84.0913 137.326 83.746 137.326 83.326C137.326 82.9993 137.228 82.7333 137.032 82.528C136.846 82.3227 136.608 82.164 136.318 82.052C136.038 81.94 135.646 81.8187 135.142 81.688C134.508 81.52 133.99 81.352 133.588 81.184C133.196 81.0067 132.86 80.736 132.58 80.372C132.3 80.008 132.16 79.5227 132.16 78.916C132.16 78.356 132.3 77.866 132.58 77.446C132.86 77.026 133.252 76.704 133.756 76.48C134.26 76.256 134.844 76.144 135.506 76.144C136.449 76.144 137.219 76.382 137.816 76.858C138.423 77.3247 138.759 77.9687 138.824 78.79H137.06C137.032 78.4353 136.864 78.132 136.556 77.88C136.248 77.628 135.842 77.502 135.338 77.502C134.881 77.502 134.508 77.6187 134.218 77.852C133.929 78.0853 133.784 78.4213 133.784 78.86C133.784 79.1587 133.873 79.406 134.05 79.602C134.237 79.7887 134.47 79.938 134.75 80.05C135.03 80.162 135.413 80.2833 135.898 80.414C136.542 80.5913 137.065 80.7687 137.466 80.946C137.877 81.1233 138.222 81.3987 138.502 81.772C138.792 82.136 138.936 82.626 138.936 83.242C138.936 83.7367 138.801 84.2033 138.53 84.642C138.269 85.0807 137.882 85.4353 137.368 85.706C136.864 85.9673 136.267 86.098 135.576 86.098Z" fill="#454256"/>
<path d="M87.6376 47.6001C87.3903 47.6001 87.1486 47.6734 86.9431 47.8107C86.7375 47.9481 86.5773 48.1433 86.4827 48.3717C86.3881 48.6001 86.3633 48.8515 86.4116 49.0939C86.4598 49.3364 86.5789 49.5592 86.7537 49.734C86.9285 49.9088 87.1512 50.0278 87.3937 50.0761C87.6362 50.1243 87.8875 50.0995 88.1159 50.0049C88.3443 49.9103 88.5395 49.7501 88.6769 49.5445C88.8142 49.339 88.8876 49.0973 88.8876 48.8501C88.8876 48.5186 88.7559 48.2006 88.5214 47.9662C88.287 47.7318 87.9691 47.6001 87.6376 47.6001ZM87.6376 42.0001C87.3903 42.0001 87.1486 42.0734 86.9431 42.2107C86.7375 42.3481 86.5773 42.5433 86.4827 42.7717C86.3881 43.0001 86.3633 43.2515 86.4116 43.4939C86.4598 43.7364 86.5789 43.9592 86.7537 44.134C86.9285 44.3088 87.1512 44.4278 87.3937 44.4761C87.6362 44.5243 87.8875 44.4995 88.1159 44.4049C88.3443 44.3103 88.5395 44.1501 88.6769 43.9445C88.8142 43.739 88.8876 43.4973 88.8876 43.2501C88.8876 42.9186 88.7559 42.6006 88.5214 42.3662C88.287 42.1318 87.9691 42.0001 87.6376 42.0001ZM92 44.5001C91.6685 44.5001 91.3506 44.6318 91.1162 44.8662C90.8817 45.1006 90.75 45.4186 90.75 45.7501V47.0001C90.75 47.3316 90.8817 47.6495 91.1162 47.884C91.3506 48.1184 91.6685 48.2501 92 48.2501C92.3316 48.2501 92.6495 48.1184 92.8839 47.884C93.1184 47.6495 93.25 47.3316 93.25 47.0001V45.7501C93.25 45.4186 93.1184 45.1006 92.8839 44.8662C92.6495 44.6318 92.3316 44.5001 92 44.5001ZM102.625 42.7126C102.194 42.4645 101.718 42.3046 101.224 42.2424C100.73 42.1802 100.229 42.2168 99.75 42.3501C99.2512 42.4837 98.7867 42.7224 98.3876 43.0501L83.8875 34.6626C83.6975 34.5529 83.482 34.4951 83.2625 34.4951C83.0431 34.4951 82.8276 34.5529 82.6375 34.6626C82.4445 34.7711 82.2837 34.929 82.1717 35.1201C82.0597 35.3112 82.0004 35.5286 82 35.7501V52.2126C81.2624 52.4614 80.6228 52.9381 80.1735 53.5738C79.7241 54.2096 79.4883 54.9717 79.5 55.7501C79.4997 56.7276 79.881 57.6665 80.5628 58.367C81.2446 59.0675 82.1729 59.474 83.15 59.5001H83.875C87.971 59.4905 91.9914 58.3972 95.5282 56.3313C99.065 54.2655 101.992 51.3006 104.013 47.7376C104.479 46.8851 104.597 45.8847 104.34 44.9473C104.084 44.0099 103.473 43.2087 102.638 42.7126H102.625ZM84.5 37.9126L96.8626 45.0501C95.491 47.0966 93.6575 48.7919 91.51 49.9992C89.3625 51.2065 86.9613 51.8919 84.5 52.0001V37.9126ZM101.838 46.5126C99.9819 49.7822 97.2718 52.4854 93.9975 54.3328C90.7233 56.1803 87.0081 57.1022 83.25 57.0001C82.9185 57.0001 82.6006 56.8684 82.3662 56.634C82.1317 56.3995 82 56.0816 82 55.7501C81.9991 55.5826 82.0318 55.4166 82.0962 55.262C82.1606 55.1074 82.2554 54.9673 82.375 54.8501C82.6099 54.6237 82.9239 54.4981 83.25 54.5001H83.8875C87.0972 54.4988 90.2489 53.6452 93.0206 52.0266C95.7922 50.408 98.0843 48.0824 99.6625 45.2876C99.7384 45.1505 99.8421 45.0307 99.967 44.936C100.092 44.8413 100.235 44.7737 100.388 44.7376C100.703 44.6511 101.039 44.6915 101.325 44.8501C101.612 45.0042 101.827 45.2642 101.925 45.5747C102.023 45.8852 101.996 46.2217 101.85 46.5126H101.838Z" fill="#454256"/>
<defs>
<filter id="filter0_d_467_4852" x="0" y="0" width="184" height="124" filterUnits="userSpaceOnUse" color-interpolation-filters="sRGB">
<feFlood flood-opacity="0" result="BackgroundImageFix"/>
<feColorMatrix in="SourceAlpha" type="matrix" values="0 0 0 0 0 0 0 0 0 0 0 0 0 0 0 0 0 0 127 0" result="hardAlpha"/>
<feOffset/>
<feGaussianBlur stdDeviation="6"/>
<feComposite in2="hardAlpha" operator="out"/>
<feColorMatrix type="matrix" values="0 0 0 0 0 0 0 0 0 0 0 0 0 0 0 0 0 0 0.04 0"/>
<feBlend mode="normal" in2="BackgroundImageFix" result="effect1_dropShadow_467_4852"/>
<feBlend mode="normal" in="SourceGraphic" in2="effect1_dropShadow_467_4852" result="shape"/>
</filter>
</defs>
</svg>
