<svg width="255" height="90" viewBox="0 0 255 90" fill="none" xmlns="http://www.w3.org/2000/svg">
<g filter="url(#filter0_d_153_3563)">
<rect x="10" y="6" width="235" height="70" rx="5" fill="white"/>
</g>
<path d="M191.701 6V10C191.701 12.2091 189.91 14 187.701 14L68.5103 14C66.3012 14 64.5103 12.2091 64.5103 10V6L191.701 6Z" fill="#4DB6AC" fill-opacity="0.8"/>
<path d="M89.5886 45.34H84.0286L83.1086 48H80.1686L85.1886 34.02H88.4486L93.4686 48H90.5086L89.5886 45.34ZM88.8286 43.1L86.8086 37.26L84.7886 43.1H88.8286ZM98.145 33.2V48H95.345V33.2H98.145ZM114.671 36.76C116.031 36.76 117.125 37.18 117.951 38.02C118.791 38.8467 119.211 40.0067 119.211 41.5V48H116.411V41.88C116.411 41.0133 116.191 40.3533 115.751 39.9C115.311 39.4333 114.711 39.2 113.951 39.2C113.191 39.2 112.585 39.4333 112.131 39.9C111.691 40.3533 111.471 41.0133 111.471 41.88V48H108.671V41.88C108.671 41.0133 108.451 40.3533 108.011 39.9C107.571 39.4333 106.971 39.2 106.211 39.2C105.438 39.2 104.825 39.4333 104.371 39.9C103.931 40.3533 103.711 41.0133 103.711 41.88V48H100.911V36.92H103.711V38.26C104.071 37.7933 104.531 37.4267 105.091 37.16C105.665 36.8933 106.291 36.76 106.971 36.76C107.838 36.76 108.611 36.9467 109.291 37.32C109.971 37.68 110.498 38.2 110.871 38.88C111.231 38.24 111.751 37.7267 112.431 37.34C113.125 36.9533 113.871 36.76 114.671 36.76ZM132.328 36.92V48H129.508V46.6C129.148 47.08 128.675 47.46 128.088 47.74C127.515 48.0067 126.888 48.14 126.208 48.14C125.342 48.14 124.575 47.96 123.908 47.6C123.242 47.2267 122.715 46.6867 122.328 45.98C121.955 45.26 121.768 44.4067 121.768 43.42V36.92H124.568V43.02C124.568 43.9 124.788 44.58 125.228 45.06C125.668 45.5267 126.268 45.76 127.028 45.76C127.802 45.76 128.408 45.5267 128.848 45.06C129.288 44.58 129.508 43.9 129.508 43.02V36.92H132.328ZM145.391 42.22C145.391 42.62 145.364 42.98 145.311 43.3H137.211C137.278 44.1 137.558 44.7267 138.051 45.18C138.544 45.6333 139.151 45.86 139.871 45.86C140.911 45.86 141.651 45.4133 142.091 44.52H145.111C144.791 45.5867 144.178 46.4667 143.271 47.16C142.364 47.84 141.251 48.18 139.931 48.18C138.864 48.18 137.904 47.9467 137.051 47.48C136.211 47 135.551 46.3267 135.071 45.46C134.604 44.5933 134.371 43.5933 134.371 42.46C134.371 41.3133 134.604 40.3067 135.071 39.44C135.538 38.5733 136.191 37.9067 137.031 37.44C137.871 36.9733 138.838 36.74 139.931 36.74C140.984 36.74 141.924 36.9667 142.751 37.42C143.591 37.8733 144.238 38.52 144.691 39.36C145.158 40.1867 145.391 41.14 145.391 42.22ZM142.491 41.42C142.478 40.7 142.218 40.1267 141.711 39.7C141.204 39.26 140.584 39.04 139.851 39.04C139.158 39.04 138.571 39.2533 138.091 39.68C137.624 40.0933 137.338 40.6733 137.231 41.42H142.491ZM150.235 38.64C150.595 38.0533 151.062 37.5933 151.635 37.26C152.222 36.9267 152.888 36.76 153.635 36.76V39.7H152.895C152.015 39.7 151.348 39.9067 150.895 40.32C150.455 40.7333 150.235 41.4533 150.235 42.48V48H147.435V36.92H150.235V38.64ZM158.081 45.7H163.021V48H154.901V45.74L159.741 39.22H154.921V36.92H162.961V39.18L158.081 45.7ZM170.109 48.18C169.042 48.18 168.082 47.9467 167.229 47.48C166.375 47 165.702 46.3267 165.209 45.46C164.729 44.5933 164.489 43.5933 164.489 42.46C164.489 41.3267 164.735 40.3267 165.229 39.46C165.735 38.5933 166.422 37.9267 167.289 37.46C168.155 36.98 169.122 36.74 170.189 36.74C171.255 36.74 172.222 36.98 173.089 37.46C173.955 37.9267 174.635 38.5933 175.129 39.46C175.635 40.3267 175.889 41.3267 175.889 42.46C175.889 43.5933 175.629 44.5933 175.109 45.46C174.602 46.3267 173.909 47 173.029 47.48C172.162 47.9467 171.189 48.18 170.109 48.18ZM170.109 45.74C170.615 45.74 171.089 45.62 171.529 45.38C171.982 45.1267 172.342 44.7533 172.609 44.26C172.875 43.7667 173.009 43.1667 173.009 42.46C173.009 41.4067 172.729 40.6 172.169 40.04C171.622 39.4667 170.949 39.18 170.149 39.18C169.349 39.18 168.675 39.4667 168.129 40.04C167.595 40.6 167.329 41.4067 167.329 42.46C167.329 43.5133 167.589 44.3267 168.109 44.9C168.642 45.46 169.309 45.74 170.109 45.74Z" fill="#383838"/>
<defs>
<filter id="filter0_d_153_3563" x="0" y="0" width="255" height="90" filterUnits="userSpaceOnUse" color-interpolation-filters="sRGB">
<feFlood flood-opacity="0" result="BackgroundImageFix"/>
<feColorMatrix in="SourceAlpha" type="matrix" values="0 0 0 0 0 0 0 0 0 0 0 0 0 0 0 0 0 0 127 0" result="hardAlpha"/>
<feOffset dy="4"/>
<feGaussianBlur stdDeviation="5"/>
<feComposite in2="hardAlpha" operator="out"/>
<feColorMatrix type="matrix" values="0 0 0 0 0.792157 0 0 0 0 0.756863 0 0 0 0 0.756863 0 0 0 0.45 0"/>
<feBlend mode="normal" in2="BackgroundImageFix" result="effect1_dropShadow_153_3563"/>
<feBlend mode="normal" in="SourceGraphic" in2="effect1_dropShadow_153_3563" result="shape"/>
</filter>
</defs>
</svg>
