<svg width="24" height="24" viewBox="0 0 24 24" fill="none" xmlns="http://www.w3.org/2000/svg">
<path d="M22.1836 11.8363L12.5297 2.18943C12.4602 2.11979 12.3776 2.06453 12.2867 2.02683C12.1958 1.98913 12.0984 1.96973 12 1.96973C11.9016 1.96973 11.8042 1.98913 11.7133 2.02683C11.6224 2.06453 11.5398 2.11979 11.4703 2.18943L1.81642 11.8363C1.53517 12.1176 1.37579 12.4996 1.37579 12.898C1.37579 13.7254 2.04845 14.398 2.87579 14.398H3.89298V21.2816C3.89298 21.6965 4.22814 22.0316 4.64298 22.0316H10.5V16.7816H13.125V22.0316H19.357C19.7719 22.0316 20.107 21.6965 20.107 21.2816V14.398H21.1242C21.5227 14.398 21.9047 14.241 22.1859 13.9574C22.7695 13.3715 22.7695 12.4222 22.1836 11.8363Z" fill="#68D7E0"/>
</svg>
