<svg width="233" height="90" viewBox="0 0 233 90" fill="none" xmlns="http://www.w3.org/2000/svg">
<g filter="url(#filter0_d_358_6974)">
<rect x="10" y="6" width="213" height="70" rx="5" fill="white"/>
<rect x="10.5" y="6.5" width="212" height="69" rx="4.5" stroke="#68D7E0"/>
</g>
<path d="M61.7 42C61.7 40.6267 62.0067 39.4 62.62 38.32C63.2467 37.2267 64.0933 36.38 65.16 35.78C66.24 35.1667 67.4467 34.86 68.78 34.86C70.34 34.86 71.7067 35.26 72.88 36.06C74.0533 36.86 74.8733 37.9667 75.34 39.38H72.12C71.8 38.7133 71.3467 38.2133 70.76 37.88C70.1867 37.5467 69.52 37.38 68.76 37.38C67.9467 37.38 67.22 37.5733 66.58 37.96C65.9533 38.3333 65.46 38.8667 65.1 39.56C64.7533 40.2533 64.58 41.0667 64.58 42C64.58 42.92 64.7533 43.7333 65.1 44.44C65.46 45.1333 65.9533 45.6733 66.58 46.06C67.22 46.4333 67.9467 46.62 68.76 46.62C69.52 46.62 70.1867 46.4533 70.76 46.12C71.3467 45.7733 71.8 45.2667 72.12 44.6H75.34C74.8733 46.0267 74.0533 47.14 72.88 47.94C71.72 48.7267 70.3533 49.12 68.78 49.12C67.4467 49.12 66.24 48.82 65.16 48.22C64.0933 47.6067 63.2467 46.76 62.62 45.68C62.0067 44.6 61.7 43.3733 61.7 42ZM80.5316 39.64C80.8916 39.0533 81.3582 38.5933 81.9316 38.26C82.5182 37.9267 83.1849 37.76 83.9316 37.76V40.7H83.1916C82.3116 40.7 81.6449 40.9067 81.1916 41.32C80.7516 41.7333 80.5316 42.4533 80.5316 43.48V49H77.7316V37.92H80.5316V39.64ZM96.1175 43.22C96.1175 43.62 96.0908 43.98 96.0375 44.3H87.9375C88.0042 45.1 88.2842 45.7267 88.7775 46.18C89.2708 46.6333 89.8775 46.86 90.5975 46.86C91.6375 46.86 92.3775 46.4133 92.8175 45.52H95.8375C95.5175 46.5867 94.9042 47.4667 93.9975 48.16C93.0908 48.84 91.9775 49.18 90.6575 49.18C89.5908 49.18 88.6308 48.9467 87.7775 48.48C86.9375 48 86.2775 47.3267 85.7975 46.46C85.3308 45.5933 85.0975 44.5933 85.0975 43.46C85.0975 42.3133 85.3308 41.3067 85.7975 40.44C86.2642 39.5733 86.9175 38.9067 87.7575 38.44C88.5975 37.9733 89.5642 37.74 90.6575 37.74C91.7108 37.74 92.6508 37.9667 93.4775 38.42C94.3175 38.8733 94.9642 39.52 95.4175 40.36C95.8842 41.1867 96.1175 42.14 96.1175 43.22ZM93.2175 42.42C93.2042 41.7 92.9442 41.1267 92.4375 40.7C91.9308 40.26 91.3108 40.04 90.5775 40.04C89.8842 40.04 89.2975 40.2533 88.8175 40.68C88.3508 41.0933 88.0642 41.6733 87.9575 42.42H93.2175ZM97.4412 43.42C97.4412 42.3 97.6612 41.3067 98.1012 40.44C98.5546 39.5733 99.1613 38.9067 99.9213 38.44C100.695 37.9733 101.555 37.74 102.501 37.74C103.328 37.74 104.048 37.9067 104.661 38.24C105.288 38.5733 105.788 38.9933 106.161 39.5V37.92H108.981V49H106.161V47.38C105.801 47.9 105.301 48.3333 104.661 48.68C104.035 49.0133 103.308 49.18 102.481 49.18C101.548 49.18 100.695 48.94 99.9213 48.46C99.1613 47.98 98.5546 47.3067 98.1012 46.44C97.6612 45.56 97.4412 44.5533 97.4412 43.42ZM106.161 43.46C106.161 42.78 106.028 42.2 105.761 41.72C105.495 41.2267 105.135 40.8533 104.681 40.6C104.228 40.3333 103.741 40.2 103.221 40.2C102.701 40.2 102.221 40.3267 101.781 40.58C101.341 40.8333 100.981 41.2067 100.701 41.7C100.435 42.18 100.301 42.7533 100.301 43.42C100.301 44.0867 100.435 44.6733 100.701 45.18C100.981 45.6733 101.341 46.0533 101.781 46.32C102.235 46.5867 102.715 46.72 103.221 46.72C103.741 46.72 104.228 46.5933 104.681 46.34C105.135 46.0733 105.495 45.7 105.761 45.22C106.028 44.7267 106.161 44.14 106.161 43.46ZM114.516 39.64C114.876 39.0533 115.343 38.5933 115.916 38.26C116.503 37.9267 117.169 37.76 117.916 37.76V40.7H117.176C116.296 40.7 115.629 40.9067 115.176 41.32C114.736 41.7333 114.516 42.4533 114.516 43.48V49H111.716V37.92H114.516V39.64ZM127.368 34.2V49H124.568V34.2H127.368ZM131.554 36.6C131.061 36.6 130.647 36.4467 130.314 36.14C129.994 35.82 129.834 35.4267 129.834 34.96C129.834 34.4933 129.994 34.1067 130.314 33.8C130.647 33.48 131.061 33.32 131.554 33.32C132.047 33.32 132.454 33.48 132.774 33.8C133.107 34.1067 133.274 34.4933 133.274 34.96C133.274 35.4267 133.107 35.82 132.774 36.14C132.454 36.4467 132.047 36.6 131.554 36.6ZM132.934 37.92V49H130.134V37.92H132.934ZM139.94 49.18C139.034 49.18 138.22 49.02 137.5 48.7C136.78 48.3667 136.207 47.92 135.78 47.36C135.367 46.8 135.14 46.18 135.1 45.5H137.92C137.974 45.9267 138.18 46.28 138.54 46.56C138.914 46.84 139.374 46.98 139.92 46.98C140.454 46.98 140.867 46.8733 141.16 46.66C141.467 46.4467 141.62 46.1733 141.62 45.84C141.62 45.48 141.434 45.2133 141.06 45.04C140.7 44.8533 140.12 44.6533 139.32 44.44C138.494 44.24 137.814 44.0333 137.28 43.82C136.76 43.6067 136.307 43.28 135.92 42.84C135.547 42.4 135.36 41.8067 135.36 41.06C135.36 40.4467 135.534 39.8867 135.88 39.38C136.24 38.8733 136.747 38.4733 137.4 38.18C138.067 37.8867 138.847 37.74 139.74 37.74C141.06 37.74 142.114 38.0733 142.9 38.74C143.687 39.3933 144.12 40.28 144.2 41.4H141.52C141.48 40.96 141.294 40.6133 140.96 40.36C140.64 40.0933 140.207 39.96 139.66 39.96C139.154 39.96 138.76 40.0533 138.48 40.24C138.214 40.4267 138.08 40.6867 138.08 41.02C138.08 41.3933 138.267 41.68 138.64 41.88C139.014 42.0667 139.594 42.26 140.38 42.46C141.18 42.66 141.84 42.8667 142.36 43.08C142.88 43.2933 143.327 43.6267 143.7 44.08C144.087 44.52 144.287 45.1067 144.3 45.84C144.3 46.48 144.12 47.0533 143.76 47.56C143.414 48.0667 142.907 48.4667 142.24 48.76C141.587 49.04 140.82 49.18 139.94 49.18ZM149.859 40.22V45.58C149.859 45.9533 149.945 46.2267 150.119 46.4C150.305 46.56 150.612 46.64 151.039 46.64H152.339V49H150.579C148.219 49 147.039 47.8533 147.039 45.56V40.22H145.719V37.92H147.039V35.18H149.859V37.92H152.339V40.22H149.859ZM153.633 43.42C153.633 42.3 153.853 41.3067 154.293 40.44C154.746 39.5733 155.353 38.9067 156.113 38.44C156.886 37.9733 157.746 37.74 158.693 37.74C159.519 37.74 160.239 37.9067 160.853 38.24C161.479 38.5733 161.979 38.9933 162.353 39.5V37.92H165.173V49H162.353V47.38C161.993 47.9 161.493 48.3333 160.853 48.68C160.226 49.0133 159.499 49.18 158.673 49.18C157.739 49.18 156.886 48.94 156.113 48.46C155.353 47.98 154.746 47.3067 154.293 46.44C153.853 45.56 153.633 44.5533 153.633 43.42ZM162.353 43.46C162.353 42.78 162.219 42.2 161.953 41.72C161.686 41.2267 161.326 40.8533 160.873 40.6C160.419 40.3333 159.933 40.2 159.413 40.2C158.893 40.2 158.413 40.3267 157.973 40.58C157.533 40.8333 157.173 41.2067 156.893 41.7C156.626 42.18 156.493 42.7533 156.493 43.42C156.493 44.0867 156.626 44.6733 156.893 45.18C157.173 45.6733 157.533 46.0533 157.973 46.32C158.426 46.5867 158.906 46.72 159.413 46.72C159.933 46.72 160.419 46.5933 160.873 46.34C161.326 46.0733 161.686 45.7 161.953 45.22C162.219 44.7267 162.353 44.14 162.353 43.46Z" fill="#383838"/>
<circle cx="42" cy="42" r="15" fill="#68D7E0"/>
<path d="M34 36H36V38H34V36ZM34 41H36V43H34V41ZM34 46H36V48H34V46ZM50 38V36H38.023V38H48.8H50ZM38 41H50V43H38V41ZM38 46H50V48H38V46Z" fill="white"/>
<defs>
<filter id="filter0_d_358_6974" x="0" y="0" width="233" height="90" filterUnits="userSpaceOnUse" color-interpolation-filters="sRGB">
<feFlood flood-opacity="0" result="BackgroundImageFix"/>
<feColorMatrix in="SourceAlpha" type="matrix" values="0 0 0 0 0 0 0 0 0 0 0 0 0 0 0 0 0 0 127 0" result="hardAlpha"/>
<feOffset dy="4"/>
<feGaussianBlur stdDeviation="5"/>
<feComposite in2="hardAlpha" operator="out"/>
<feColorMatrix type="matrix" values="0 0 0 0 0.792157 0 0 0 0 0.756863 0 0 0 0 0.756863 0 0 0 0.45 0"/>
<feBlend mode="normal" in2="BackgroundImageFix" result="effect1_dropShadow_358_6974"/>
<feBlend mode="normal" in="SourceGraphic" in2="effect1_dropShadow_358_6974" result="shape"/>
</filter>
</defs>
</svg>
