<svg width="233" height="90" viewBox="0 0 233 90" fill="none" xmlns="http://www.w3.org/2000/svg">
<g filter="url(#filter0_d_358_6968)">
<rect x="10" y="6" width="213" height="70" rx="5" fill="white"/>
<rect x="10.5" y="6.5" width="212" height="69" rx="4.5" stroke="#68D7E0"/>
</g>
<path d="M61.7 42C61.7 40.6267 62.0067 39.4 62.62 38.32C63.2467 37.2267 64.0933 36.38 65.16 35.78C66.24 35.1667 67.4467 34.86 68.78 34.86C70.34 34.86 71.7067 35.26 72.88 36.06C74.0533 36.86 74.8733 37.9667 75.34 39.38H72.12C71.8 38.7133 71.3467 38.2133 70.76 37.88C70.1867 37.5467 69.52 37.38 68.76 37.38C67.9467 37.38 67.22 37.5733 66.58 37.96C65.9533 38.3333 65.46 38.8667 65.1 39.56C64.7533 40.2533 64.58 41.0667 64.58 42C64.58 42.92 64.7533 43.7333 65.1 44.44C65.46 45.1333 65.9533 45.6733 66.58 46.06C67.22 46.4333 67.9467 46.62 68.76 46.62C69.52 46.62 70.1867 46.4533 70.76 46.12C71.3467 45.7733 71.8 45.2667 72.12 44.6H75.34C74.8733 46.0267 74.0533 47.14 72.88 47.94C71.72 48.7267 70.3533 49.12 68.78 49.12C67.4467 49.12 66.24 48.82 65.16 48.22C64.0933 47.6067 63.2467 46.76 62.62 45.68C62.0067 44.6 61.7 43.3733 61.7 42ZM80.5316 39.64C80.8916 39.0533 81.3582 38.5933 81.9316 38.26C82.5182 37.9267 83.1849 37.76 83.9316 37.76V40.7H83.1916C82.3116 40.7 81.6449 40.9067 81.1916 41.32C80.7516 41.7333 80.5316 42.4533 80.5316 43.48V49H77.7316V37.92H80.5316V39.64ZM96.1175 43.22C96.1175 43.62 96.0908 43.98 96.0375 44.3H87.9375C88.0042 45.1 88.2842 45.7267 88.7775 46.18C89.2708 46.6333 89.8775 46.86 90.5975 46.86C91.6375 46.86 92.3775 46.4133 92.8175 45.52H95.8375C95.5175 46.5867 94.9042 47.4667 93.9975 48.16C93.0908 48.84 91.9775 49.18 90.6575 49.18C89.5908 49.18 88.6308 48.9467 87.7775 48.48C86.9375 48 86.2775 47.3267 85.7975 46.46C85.3308 45.5933 85.0975 44.5933 85.0975 43.46C85.0975 42.3133 85.3308 41.3067 85.7975 40.44C86.2642 39.5733 86.9175 38.9067 87.7575 38.44C88.5975 37.9733 89.5642 37.74 90.6575 37.74C91.7108 37.74 92.6508 37.9667 93.4775 38.42C94.3175 38.8733 94.9642 39.52 95.4175 40.36C95.8842 41.1867 96.1175 42.14 96.1175 43.22ZM93.2175 42.42C93.2042 41.7 92.9442 41.1267 92.4375 40.7C91.9308 40.26 91.3108 40.04 90.5775 40.04C89.8842 40.04 89.2975 40.2533 88.8175 40.68C88.3508 41.0933 88.0642 41.6733 87.9575 42.42H93.2175ZM97.4412 43.42C97.4412 42.3 97.6612 41.3067 98.1012 40.44C98.5546 39.5733 99.1613 38.9067 99.9213 38.44C100.695 37.9733 101.555 37.74 102.501 37.74C103.328 37.74 104.048 37.9067 104.661 38.24C105.288 38.5733 105.788 38.9933 106.161 39.5V37.92H108.981V49H106.161V47.38C105.801 47.9 105.301 48.3333 104.661 48.68C104.035 49.0133 103.308 49.18 102.481 49.18C101.548 49.18 100.695 48.94 99.9213 48.46C99.1613 47.98 98.5546 47.3067 98.1012 46.44C97.6612 45.56 97.4412 44.5533 97.4412 43.42ZM106.161 43.46C106.161 42.78 106.028 42.2 105.761 41.72C105.495 41.2267 105.135 40.8533 104.681 40.6C104.228 40.3333 103.741 40.2 103.221 40.2C102.701 40.2 102.221 40.3267 101.781 40.58C101.341 40.8333 100.981 41.2067 100.701 41.7C100.435 42.18 100.301 42.7533 100.301 43.42C100.301 44.0867 100.435 44.6733 100.701 45.18C100.981 45.6733 101.341 46.0533 101.781 46.32C102.235 46.5867 102.715 46.72 103.221 46.72C103.741 46.72 104.228 46.5933 104.681 46.34C105.135 46.0733 105.495 45.7 105.761 45.22C106.028 44.7267 106.161 44.14 106.161 43.46ZM114.516 39.64C114.876 39.0533 115.343 38.5933 115.916 38.26C116.503 37.9267 117.169 37.76 117.916 37.76V40.7H117.176C116.296 40.7 115.629 40.9067 115.176 41.32C114.736 41.7333 114.516 42.4533 114.516 43.48V49H111.716V37.92H114.516V39.64ZM127.368 39.64C127.728 39.0533 128.194 38.5933 128.768 38.26C129.354 37.9267 130.021 37.76 130.768 37.76V40.7H130.028C129.148 40.7 128.481 40.9067 128.028 41.32C127.588 41.7333 127.368 42.4533 127.368 43.48V49H124.568V37.92H127.368V39.64ZM142.953 43.22C142.953 43.62 142.927 43.98 142.873 44.3H134.773C134.84 45.1 135.12 45.7267 135.613 46.18C136.107 46.6333 136.713 46.86 137.433 46.86C138.473 46.86 139.213 46.4133 139.653 45.52H142.673C142.353 46.5867 141.74 47.4667 140.833 48.16C139.927 48.84 138.813 49.18 137.493 49.18C136.427 49.18 135.467 48.9467 134.613 48.48C133.773 48 133.113 47.3267 132.633 46.46C132.167 45.5933 131.933 44.5933 131.933 43.46C131.933 42.3133 132.167 41.3067 132.633 40.44C133.1 39.5733 133.753 38.9067 134.593 38.44C135.433 37.9733 136.4 37.74 137.493 37.74C138.547 37.74 139.487 37.9667 140.313 38.42C141.153 38.8733 141.8 39.52 142.253 40.36C142.72 41.1867 142.953 42.14 142.953 43.22ZM140.053 42.42C140.04 41.7 139.78 41.1267 139.273 40.7C138.767 40.26 138.147 40.04 137.413 40.04C136.72 40.04 136.133 40.2533 135.653 40.68C135.187 41.0933 134.9 41.6733 134.793 42.42H140.053ZM144.277 43.46C144.277 42.3133 144.511 41.3133 144.977 40.46C145.444 39.5933 146.091 38.9267 146.917 38.46C147.744 37.98 148.691 37.74 149.757 37.74C151.131 37.74 152.264 38.0867 153.157 38.78C154.064 39.46 154.671 40.42 154.977 41.66H151.957C151.797 41.18 151.524 40.8067 151.137 40.54C150.764 40.26 150.297 40.12 149.737 40.12C148.937 40.12 148.304 40.4133 147.837 41C147.371 41.5733 147.137 42.3933 147.137 43.46C147.137 44.5133 147.371 45.3333 147.837 45.92C148.304 46.4933 148.937 46.78 149.737 46.78C150.871 46.78 151.611 46.2733 151.957 45.26H154.977C154.671 46.46 154.064 47.4133 153.157 48.12C152.251 48.8267 151.117 49.18 149.757 49.18C148.691 49.18 147.744 48.9467 146.917 48.48C146.091 48 145.444 47.3333 144.977 46.48C144.511 45.6133 144.277 44.6067 144.277 43.46ZM167.328 43.22C167.328 43.62 167.302 43.98 167.248 44.3H159.148C159.215 45.1 159.495 45.7267 159.988 46.18C160.482 46.6333 161.088 46.86 161.808 46.86C162.848 46.86 163.588 46.4133 164.028 45.52H167.048C166.728 46.5867 166.115 47.4667 165.208 48.16C164.302 48.84 163.188 49.18 161.868 49.18C160.802 49.18 159.842 48.9467 158.988 48.48C158.148 48 157.488 47.3267 157.008 46.46C156.542 45.5933 156.308 44.5933 156.308 43.46C156.308 42.3133 156.542 41.3067 157.008 40.44C157.475 39.5733 158.128 38.9067 158.968 38.44C159.808 37.9733 160.775 37.74 161.868 37.74C162.922 37.74 163.862 37.9667 164.688 38.42C165.528 38.8733 166.175 39.52 166.628 40.36C167.095 41.1867 167.328 42.14 167.328 43.22ZM164.428 42.42C164.415 41.7 164.155 41.1267 163.648 40.7C163.142 40.26 162.522 40.04 161.788 40.04C161.095 40.04 160.508 40.2533 160.028 40.68C159.562 41.0933 159.275 41.6733 159.168 42.42H164.428ZM172.632 40.22V45.58C172.632 45.9533 172.719 46.2267 172.892 46.4C173.079 46.56 173.386 46.64 173.812 46.64H175.112V49H173.352C170.992 49 169.812 47.8533 169.812 45.56V40.22H168.492V37.92H169.812V35.18H172.632V37.92H175.112V40.22H172.632ZM176.406 43.42C176.406 42.3 176.626 41.3067 177.066 40.44C177.519 39.5733 178.126 38.9067 178.886 38.44C179.659 37.9733 180.519 37.74 181.466 37.74C182.293 37.74 183.013 37.9067 183.626 38.24C184.253 38.5733 184.753 38.9933 185.126 39.5V37.92H187.946V49H185.126V47.38C184.766 47.9 184.266 48.3333 183.626 48.68C182.999 49.0133 182.273 49.18 181.446 49.18C180.513 49.18 179.659 48.94 178.886 48.46C178.126 47.98 177.519 47.3067 177.066 46.44C176.626 45.56 176.406 44.5533 176.406 43.42ZM185.126 43.46C185.126 42.78 184.993 42.2 184.726 41.72C184.459 41.2267 184.099 40.8533 183.646 40.6C183.193 40.3333 182.706 40.2 182.186 40.2C181.666 40.2 181.186 40.3267 180.746 40.58C180.306 40.8333 179.946 41.2067 179.666 41.7C179.399 42.18 179.266 42.7533 179.266 43.42C179.266 44.0867 179.399 44.6733 179.666 45.18C179.946 45.6733 180.306 46.0533 180.746 46.32C181.199 46.5867 181.679 46.72 182.186 46.72C182.706 46.72 183.193 46.5933 183.646 46.34C184.099 46.0733 184.459 45.7 184.726 45.22C184.993 44.7267 185.126 44.14 185.126 43.46Z" fill="#383838"/>
<circle cx="42" cy="42" r="15" fill="#68D7E0"/>
<path d="M39.2558 48.4222L47 40.678L43.3217 36.9997L35.5775 44.7439C35.4709 44.8506 35.3952 44.9842 35.3583 45.1305L34.5 49.4997L38.8683 48.6414C39.015 48.6047 39.1492 48.5289 39.2558 48.4222ZM49.5 38.178C49.8125 37.8655 49.988 37.4416 49.988 36.9997C49.988 36.5578 49.8125 36.1339 49.5 35.8214L48.1783 34.4997C47.8658 34.1872 47.4419 34.0117 47 34.0117C46.5581 34.0117 46.1342 34.1872 45.8217 34.4997L44.5 35.8214L48.1783 39.4997L49.5 38.178Z" fill="white"/>
<defs>
<filter id="filter0_d_358_6968" x="0" y="0" width="233" height="90" filterUnits="userSpaceOnUse" color-interpolation-filters="sRGB">
<feFlood flood-opacity="0" result="BackgroundImageFix"/>
<feColorMatrix in="SourceAlpha" type="matrix" values="0 0 0 0 0 0 0 0 0 0 0 0 0 0 0 0 0 0 127 0" result="hardAlpha"/>
<feOffset dy="4"/>
<feGaussianBlur stdDeviation="5"/>
<feComposite in2="hardAlpha" operator="out"/>
<feColorMatrix type="matrix" values="0 0 0 0 0.792157 0 0 0 0 0.756863 0 0 0 0 0.756863 0 0 0 0.45 0"/>
<feBlend mode="normal" in2="BackgroundImageFix" result="effect1_dropShadow_358_6968"/>
<feBlend mode="normal" in="SourceGraphic" in2="effect1_dropShadow_358_6968" result="shape"/>
</filter>
</defs>
</svg>
