<svg width="24" height="24" viewBox="0 0 24 24" fill="none" xmlns="http://www.w3.org/2000/svg">
<path d="M8.707 19.7066L18 10.4136L13.586 5.99964L4.293 15.2926C4.16506 15.4207 4.07418 15.5811 4.03 15.7566L3 20.9996L8.242 19.9696C8.418 19.9256 8.579 19.8346 8.707 19.7066ZM21 7.41364C21.3749 7.03858 21.5856 6.52996 21.5856 5.99964C21.5856 5.46931 21.3749 4.96069 21 4.58564L19.414 2.99964C19.0389 2.62469 18.5303 2.41406 18 2.41406C17.4697 2.41406 16.9611 2.62469 16.586 2.99964L15 4.58564L19.414 8.99964L21 7.41364Z" fill="#68D7E0"/>
</svg>
