<svg width="254" height="90" viewBox="0 0 254 90" fill="none" xmlns="http://www.w3.org/2000/svg">
<g filter="url(#filter0_d_153_3565)">
<rect x="10" y="6" width="234" height="70" rx="5" fill="white"/>
</g>
<path d="M190.928 6V10C190.928 12.2091 189.137 14 186.928 14L68.2784 14C66.0692 14 64.2784 12.2091 64.2784 10V6L190.928 6Z" fill="#EB4335" fill-opacity="0.8"/>
<path d="M101.067 41C101.067 39.6267 101.373 38.4 101.987 37.32C102.613 36.2267 103.46 35.38 104.527 34.78C105.607 34.1667 106.813 33.86 108.147 33.86C109.707 33.86 111.073 34.26 112.247 35.06C113.42 35.86 114.24 36.9667 114.707 38.38H111.487C111.167 37.7133 110.713 37.2133 110.127 36.88C109.553 36.5467 108.887 36.38 108.127 36.38C107.313 36.38 106.587 36.5733 105.947 36.96C105.32 37.3333 104.827 37.8667 104.467 38.56C104.12 39.2533 103.947 40.0667 103.947 41C103.947 41.92 104.12 42.7333 104.467 43.44C104.827 44.1333 105.32 44.6733 105.947 45.06C106.587 45.4333 107.313 45.62 108.127 45.62C108.887 45.62 109.553 45.4533 110.127 45.12C110.713 44.7733 111.167 44.2667 111.487 43.6H114.707C114.24 45.0267 113.42 46.14 112.247 46.94C111.087 47.7267 109.72 48.12 108.147 48.12C106.813 48.12 105.607 47.82 104.527 47.22C103.46 46.6067 102.613 45.76 101.987 44.68C101.373 43.6 101.067 42.3733 101.067 41ZM127.398 42.22C127.398 42.62 127.372 42.98 127.318 43.3H119.218C119.285 44.1 119.565 44.7267 120.058 45.18C120.552 45.6333 121.158 45.86 121.878 45.86C122.918 45.86 123.658 45.4133 124.098 44.52H127.118C126.798 45.5867 126.185 46.4667 125.278 47.16C124.372 47.84 123.258 48.18 121.938 48.18C120.872 48.18 119.912 47.9467 119.058 47.48C118.218 47 117.558 46.3267 117.078 45.46C116.612 44.5933 116.378 43.5933 116.378 42.46C116.378 41.3133 116.612 40.3067 117.078 39.44C117.545 38.5733 118.198 37.9067 119.038 37.44C119.878 36.9733 120.845 36.74 121.938 36.74C122.992 36.74 123.932 36.9667 124.758 37.42C125.598 37.8733 126.245 38.52 126.698 39.36C127.165 40.1867 127.398 41.14 127.398 42.22ZM124.498 41.42C124.485 40.7 124.225 40.1267 123.718 39.7C123.212 39.26 122.592 39.04 121.858 39.04C121.165 39.04 120.578 39.2533 120.098 39.68C119.632 40.0933 119.345 40.6733 119.238 41.42H124.498ZM135.582 36.76C136.902 36.76 137.969 37.18 138.782 38.02C139.595 38.8467 140.002 40.0067 140.002 41.5V48H137.202V41.88C137.202 41 136.982 40.3267 136.542 39.86C136.102 39.38 135.502 39.14 134.742 39.14C133.969 39.14 133.355 39.38 132.902 39.86C132.462 40.3267 132.242 41 132.242 41.88V48H129.442V36.92H132.242V38.3C132.615 37.82 133.089 37.4467 133.662 37.18C134.249 36.9 134.889 36.76 135.582 36.76ZM141.945 42.42C141.945 41.3 142.165 40.3067 142.605 39.44C143.058 38.5733 143.665 37.9067 144.425 37.44C145.198 36.9733 146.058 36.74 147.005 36.74C147.831 36.74 148.551 36.9067 149.165 37.24C149.791 37.5733 150.291 37.9933 150.665 38.5V36.92H153.485V48H150.665V46.38C150.305 46.9 149.805 47.3333 149.165 47.68C148.538 48.0133 147.811 48.18 146.985 48.18C146.051 48.18 145.198 47.94 144.425 47.46C143.665 46.98 143.058 46.3067 142.605 45.44C142.165 44.56 141.945 43.5533 141.945 42.42ZM150.665 42.46C150.665 41.78 150.531 41.2 150.265 40.72C149.998 40.2267 149.638 39.8533 149.185 39.6C148.731 39.3333 148.245 39.2 147.725 39.2C147.205 39.2 146.725 39.3267 146.285 39.58C145.845 39.8333 145.485 40.2067 145.205 40.7C144.938 41.18 144.805 41.7533 144.805 42.42C144.805 43.0867 144.938 43.6733 145.205 44.18C145.485 44.6733 145.845 45.0533 146.285 45.32C146.738 45.5867 147.218 45.72 147.725 45.72C148.245 45.72 148.731 45.5933 149.185 45.34C149.638 45.0733 149.998 44.7 150.265 44.22C150.531 43.7267 150.665 43.14 150.665 42.46Z" fill="#383838"/>
<defs>
<filter id="filter0_d_153_3565" x="0" y="0" width="254" height="90" filterUnits="userSpaceOnUse" color-interpolation-filters="sRGB">
<feFlood flood-opacity="0" result="BackgroundImageFix"/>
<feColorMatrix in="SourceAlpha" type="matrix" values="0 0 0 0 0 0 0 0 0 0 0 0 0 0 0 0 0 0 127 0" result="hardAlpha"/>
<feOffset dy="4"/>
<feGaussianBlur stdDeviation="5"/>
<feComposite in2="hardAlpha" operator="out"/>
<feColorMatrix type="matrix" values="0 0 0 0 0.792157 0 0 0 0 0.756863 0 0 0 0 0.756863 0 0 0 0.45 0"/>
<feBlend mode="normal" in2="BackgroundImageFix" result="effect1_dropShadow_153_3565"/>
<feBlend mode="normal" in="SourceGraphic" in2="effect1_dropShadow_153_3565" result="shape"/>
</filter>
</defs>
</svg>
