<svg width="23" height="20" viewBox="0 0 23 20" fill="none" xmlns="http://www.w3.org/2000/svg">
<path d="M19.986 2.05375C19.3906 1.54577 18.6078 1.23391 17.7737 1.17237C16.9395 1.11082 16.1068 1.30349 15.4201 1.71687C17.6274 2.51006 19.4304 3.96196 20.5002 5.8075C20.9131 5.22228 21.0869 4.53449 20.9937 3.85403C20.9005 3.17357 20.5457 2.53971 19.986 2.05375Z" fill="black"/>
<path d="M7.5646 1.83433C6.8808 1.36558 6.02185 1.12909 5.14988 1.16948C4.2779 1.20986 3.45321 1.52435 2.83145 2.05357C2.21483 2.58931 1.84963 3.30301 1.80617 4.05725C1.7627 4.81148 2.04405 5.55293 2.59604 6.13885C3.59008 4.22991 5.35666 2.69943 7.5646 1.83433Z" fill="black"/>
<path d="M10.6498 2.18664C9.03232 2.34972 7.50069 2.90257 6.23022 3.78189C4.95975 4.66122 4.00176 5.8315 3.46589 7.15881C2.93002 8.48612 2.83791 9.91683 3.20012 11.2872C3.56232 12.6576 4.3642 13.9123 5.51398 14.9077L3.9342 16.2712C3.87684 16.3218 3.83158 16.3816 3.80101 16.4472C3.77044 16.5129 3.75514 16.5831 3.75601 16.6539C3.75687 16.7246 3.77387 16.7945 3.80604 16.8596C3.83821 16.9247 3.88491 16.9837 3.94349 17.0332C4.00207 17.0827 4.07137 17.1218 4.14744 17.1482C4.2235 17.1745 4.30485 17.1877 4.38683 17.187C4.4688 17.1863 4.54981 17.1716 4.62521 17.1438C4.70062 17.1161 4.76895 17.0757 4.82631 17.0252L6.47424 15.6028C7.98125 16.5871 9.82155 17.1162 11.7114 17.1085C13.6012 17.1007 15.4356 16.5566 16.9318 15.56L18.6293 17.0252C18.7478 17.1128 18.9002 17.1586 19.0561 17.1534C19.2121 17.1482 19.36 17.0924 19.4703 16.9971C19.5806 16.9019 19.6453 16.7742 19.6513 16.6397C19.6573 16.5051 19.6043 16.3735 19.5028 16.2712L17.8363 14.8542C19.0869 13.7485 19.9104 12.3359 20.1939 10.8102C20.4773 9.28446 20.2069 7.72041 19.4196 6.33264C18.6323 4.94487 17.3667 3.80138 15.7966 3.05907C14.2264 2.31676 12.4286 2.01201 10.6498 2.18664ZM12.6199 15.9878C11.0801 16.1619 9.51587 15.9154 8.14668 15.283C6.7775 14.6505 5.67213 13.6639 4.98576 12.4616C4.29939 11.2593 4.06646 9.9016 4.31968 8.57919C4.5729 7.25677 5.29955 6.03599 6.39763 5.08822C7.49571 4.14044 8.91008 3.51326 10.4422 3.2947C11.9743 3.07614 13.5473 3.27719 14.9403 3.86961C16.3333 4.46203 17.4764 5.41609 18.2091 6.59786C18.9419 7.77963 19.2274 9.12978 19.0258 10.4588C18.813 11.8608 18.0697 13.1629 16.9113 14.1628C15.7529 15.1626 14.2443 15.8042 12.6199 15.9878Z" fill="black"/>
<path d="M15.9281 10.8763L12.1738 9.2721V5.07988C12.1738 4.95225 12.1151 4.82984 12.0105 4.73959C11.906 4.64934 11.7641 4.59863 11.6163 4.59863C11.4684 4.59863 11.3266 4.64934 11.222 4.73959C11.1174 4.82984 11.0587 4.95225 11.0587 5.07988V9.89238L15.4325 11.7639C15.5656 11.8199 15.719 11.828 15.859 11.7864C15.999 11.7448 16.1142 11.6569 16.1791 11.542C16.244 11.4271 16.2533 11.2947 16.2051 11.1739C16.1569 11.053 16.055 10.9537 15.9219 10.8977L15.9281 10.8763Z" fill="black"/>
</svg>
