<svg width="255" height="90" viewBox="0 0 255 90" fill="none" xmlns="http://www.w3.org/2000/svg">
<g filter="url(#filter0_d_153_3562)">
<rect x="10" y="6" width="235" height="70" rx="5" fill="white"/>
</g>
<path d="M191.701 6V10C191.701 12.2091 189.91 14 187.701 14L68.5103 14C66.3012 14 64.5103 12.2091 64.5103 10V6L191.701 6Z" fill="#FCB556" fill-opacity="0.8"/>
<path d="M83.145 34.04C84.6116 34.04 85.8983 34.3267 87.005 34.9C88.125 35.4733 88.985 36.2933 89.585 37.36C90.1983 38.4133 90.505 39.64 90.505 41.04C90.505 42.44 90.1983 43.6667 89.585 44.72C88.985 45.76 88.125 46.5667 87.005 47.14C85.8983 47.7133 84.6116 48 83.145 48H78.265V34.04H83.145ZM83.045 45.62C84.5116 45.62 85.645 45.22 86.445 44.42C87.245 43.62 87.645 42.4933 87.645 41.04C87.645 39.5867 87.245 38.4533 86.445 37.64C85.645 36.8133 84.5116 36.4 83.045 36.4H81.065V45.62H83.045ZM102.901 42.22C102.901 42.62 102.874 42.98 102.821 43.3H94.7209C94.7876 44.1 95.0676 44.7267 95.5609 45.18C96.0542 45.6333 96.6609 45.86 97.3809 45.86C98.4209 45.86 99.1609 45.4133 99.6009 44.52H102.621C102.301 45.5867 101.688 46.4667 100.781 47.16C99.8742 47.84 98.7609 48.18 97.4409 48.18C96.3742 48.18 95.4142 47.9467 94.5609 47.48C93.7209 47 93.0609 46.3267 92.5809 45.46C92.1142 44.5933 91.8809 43.5933 91.8809 42.46C91.8809 41.3133 92.1142 40.3067 92.5809 39.44C93.0476 38.5733 93.7009 37.9067 94.5409 37.44C95.3809 36.9733 96.3476 36.74 97.4409 36.74C98.4942 36.74 99.4342 36.9667 100.261 37.42C101.101 37.8733 101.748 38.52 102.201 39.36C102.668 40.1867 102.901 41.14 102.901 42.22ZM100.001 41.42C99.9876 40.7 99.7276 40.1267 99.2209 39.7C98.7142 39.26 98.0942 39.04 97.3609 39.04C96.6676 39.04 96.0809 39.2533 95.6009 39.68C95.1342 40.0933 94.8476 40.6733 94.7409 41.42H100.001ZM109.185 48.18C108.278 48.18 107.465 48.02 106.745 47.7C106.025 47.3667 105.451 46.92 105.025 46.36C104.611 45.8 104.385 45.18 104.345 44.5H107.165C107.218 44.9267 107.425 45.28 107.785 45.56C108.158 45.84 108.618 45.98 109.165 45.98C109.698 45.98 110.111 45.8733 110.405 45.66C110.711 45.4467 110.865 45.1733 110.865 44.84C110.865 44.48 110.678 44.2133 110.305 44.04C109.945 43.8533 109.365 43.6533 108.565 43.44C107.738 43.24 107.058 43.0333 106.525 42.82C106.005 42.6067 105.551 42.28 105.165 41.84C104.791 41.4 104.605 40.8067 104.605 40.06C104.605 39.4467 104.778 38.8867 105.125 38.38C105.485 37.8733 105.991 37.4733 106.645 37.18C107.311 36.8867 108.091 36.74 108.985 36.74C110.305 36.74 111.358 37.0733 112.145 37.74C112.931 38.3933 113.365 39.28 113.445 40.4H110.765C110.725 39.96 110.538 39.6133 110.205 39.36C109.885 39.0933 109.451 38.96 108.905 38.96C108.398 38.96 108.005 39.0533 107.725 39.24C107.458 39.4267 107.325 39.6867 107.325 40.02C107.325 40.3933 107.511 40.68 107.885 40.88C108.258 41.0667 108.838 41.26 109.625 41.46C110.425 41.66 111.085 41.8667 111.605 42.08C112.125 42.2933 112.571 42.6267 112.945 43.08C113.331 43.52 113.531 44.1067 113.545 44.84C113.545 45.48 113.365 46.0533 113.005 46.56C112.658 47.0667 112.151 47.4667 111.485 47.76C110.831 48.04 110.065 48.18 109.185 48.18ZM115.123 42.42C115.123 41.3 115.343 40.3067 115.783 39.44C116.236 38.5733 116.843 37.9067 117.603 37.44C118.376 36.9733 119.236 36.74 120.183 36.74C121.01 36.74 121.73 36.9067 122.343 37.24C122.97 37.5733 123.47 37.9933 123.843 38.5V36.92H126.663V48H123.843V46.38C123.483 46.9 122.983 47.3333 122.343 47.68C121.716 48.0133 120.99 48.18 120.163 48.18C119.23 48.18 118.376 47.94 117.603 47.46C116.843 46.98 116.236 46.3067 115.783 45.44C115.343 44.56 115.123 43.5533 115.123 42.42ZM123.843 42.46C123.843 41.78 123.71 41.2 123.443 40.72C123.176 40.2267 122.816 39.8533 122.363 39.6C121.91 39.3333 121.423 39.2 120.903 39.2C120.383 39.2 119.903 39.3267 119.463 39.58C119.023 39.8333 118.663 40.2067 118.383 40.7C118.116 41.18 117.983 41.7533 117.983 42.42C117.983 43.0867 118.116 43.6733 118.383 44.18C118.663 44.6733 119.023 45.0533 119.463 45.32C119.916 45.5867 120.396 45.72 120.903 45.72C121.423 45.72 121.91 45.5933 122.363 45.34C122.816 45.0733 123.176 44.7 123.443 44.22C123.71 43.7267 123.843 43.14 123.843 42.46ZM139.998 36.92L133.138 53.24H130.158L132.558 47.72L128.118 36.92H131.258L134.118 44.66L137.018 36.92H139.998ZM151.967 36.92V48H149.147V46.6C148.787 47.08 148.314 47.46 147.727 47.74C147.154 48.0067 146.527 48.14 145.847 48.14C144.98 48.14 144.214 47.96 143.547 47.6C142.88 47.2267 142.354 46.6867 141.967 45.98C141.594 45.26 141.407 44.4067 141.407 43.42V36.92H144.207V43.02C144.207 43.9 144.427 44.58 144.867 45.06C145.307 45.5267 145.907 45.76 146.667 45.76C147.44 45.76 148.047 45.5267 148.487 45.06C148.927 44.58 149.147 43.9 149.147 43.02V36.92H151.967ZM160.87 36.76C162.19 36.76 163.256 37.18 164.07 38.02C164.883 38.8467 165.29 40.0067 165.29 41.5V48H162.49V41.88C162.49 41 162.27 40.3267 161.83 39.86C161.39 39.38 160.79 39.14 160.03 39.14C159.256 39.14 158.643 39.38 158.19 39.86C157.75 40.3267 157.53 41 157.53 41.88V48H154.73V36.92H157.53V38.3C157.903 37.82 158.376 37.4467 158.95 37.18C159.536 36.9 160.176 36.76 160.87 36.76ZM172.872 48.18C171.806 48.18 170.846 47.9467 169.992 47.48C169.139 47 168.466 46.3267 167.972 45.46C167.492 44.5933 167.252 43.5933 167.252 42.46C167.252 41.3267 167.499 40.3267 167.992 39.46C168.499 38.5933 169.186 37.9267 170.052 37.46C170.919 36.98 171.886 36.74 172.952 36.74C174.019 36.74 174.986 36.98 175.852 37.46C176.719 37.9267 177.399 38.5933 177.892 39.46C178.399 40.3267 178.652 41.3267 178.652 42.46C178.652 43.5933 178.392 44.5933 177.872 45.46C177.366 46.3267 176.672 47 175.792 47.48C174.926 47.9467 173.952 48.18 172.872 48.18ZM172.872 45.74C173.379 45.74 173.852 45.62 174.292 45.38C174.746 45.1267 175.106 44.7533 175.372 44.26C175.639 43.7667 175.772 43.1667 175.772 42.46C175.772 41.4067 175.492 40.6 174.932 40.04C174.386 39.4667 173.712 39.18 172.912 39.18C172.112 39.18 171.439 39.4667 170.892 40.04C170.359 40.6 170.092 41.4067 170.092 42.46C170.092 43.5133 170.352 44.3267 170.872 44.9C171.406 45.46 172.072 45.74 172.872 45.74Z" fill="#383838"/>
<defs>
<filter id="filter0_d_153_3562" x="0" y="0" width="255" height="90" filterUnits="userSpaceOnUse" color-interpolation-filters="sRGB">
<feFlood flood-opacity="0" result="BackgroundImageFix"/>
<feColorMatrix in="SourceAlpha" type="matrix" values="0 0 0 0 0 0 0 0 0 0 0 0 0 0 0 0 0 0 127 0" result="hardAlpha"/>
<feOffset dy="4"/>
<feGaussianBlur stdDeviation="5"/>
<feComposite in2="hardAlpha" operator="out"/>
<feColorMatrix type="matrix" values="0 0 0 0 0.792157 0 0 0 0 0.756863 0 0 0 0 0.756863 0 0 0 0.45 0"/>
<feBlend mode="normal" in2="BackgroundImageFix" result="effect1_dropShadow_153_3562"/>
<feBlend mode="normal" in="SourceGraphic" in2="effect1_dropShadow_153_3562" result="shape"/>
</filter>
</defs>
</svg>
