<svg width="22" height="22" viewBox="0 0 22 22" fill="none" xmlns="http://www.w3.org/2000/svg">
<path d="M21.1835 10.8363L11.5296 1.18943C11.4601 1.11979 11.3776 1.06453 11.2867 1.02683C11.1958 0.989132 11.0984 0.969727 11 0.969727C10.9016 0.969727 10.8041 0.989132 10.7132 1.02683C10.6223 1.06453 10.5398 1.11979 10.4703 1.18943L0.816357 10.8363C0.535107 11.1176 0.375732 11.4996 0.375732 11.898C0.375732 12.7254 1.04839 13.398 1.87573 13.398H2.89292V20.2816C2.89292 20.6965 3.22808 21.0316 3.64292 21.0316H9.49995V15.7816H12.125V21.0316H18.357C18.7718 21.0316 19.107 20.6965 19.107 20.2816V13.398H20.1242C20.5226 13.398 20.9046 13.241 21.1859 12.9574C21.7695 12.3715 21.7695 11.4222 21.1835 10.8363Z" fill="#383838"/>
</svg>
