<svg width="255" height="90" viewBox="0 0 255 90" fill="none" xmlns="http://www.w3.org/2000/svg">
<g filter="url(#filter0_d_153_3564)">
<rect x="10" y="6" width="235" height="70" rx="5" fill="white"/>
</g>
<path d="M191.701 6V10C191.701 12.2091 189.91 14 187.701 14L68.5103 14C66.3012 14 64.5103 12.2091 64.5103 10V6L191.701 6Z" fill="#C565F2" fill-opacity="0.8"/>
<path d="M96.3756 34.04V48H93.5756V38.92L89.8356 48H87.7156L83.9556 38.92V48H81.1556V34.04H84.3356L88.7756 44.42L93.2156 34.04H96.3756ZM109.444 42.22C109.444 42.62 109.417 42.98 109.364 43.3H101.264C101.331 44.1 101.611 44.7267 102.104 45.18C102.597 45.6333 103.204 45.86 103.924 45.86C104.964 45.86 105.704 45.4133 106.144 44.52H109.164C108.844 45.5867 108.231 46.4667 107.324 47.16C106.417 47.84 105.304 48.18 103.984 48.18C102.917 48.18 101.957 47.9467 101.104 47.48C100.264 47 99.6039 46.3267 99.1239 45.46C98.6572 44.5933 98.4239 43.5933 98.4239 42.46C98.4239 41.3133 98.6572 40.3067 99.1239 39.44C99.5905 38.5733 100.244 37.9067 101.084 37.44C101.924 36.9733 102.891 36.74 103.984 36.74C105.037 36.74 105.977 36.9667 106.804 37.42C107.644 37.8733 108.291 38.52 108.744 39.36C109.211 40.1867 109.444 41.14 109.444 42.22ZM106.544 41.42C106.531 40.7 106.271 40.1267 105.764 39.7C105.257 39.26 104.637 39.04 103.904 39.04C103.211 39.04 102.624 39.2533 102.144 39.68C101.677 40.0933 101.391 40.6733 101.284 41.42H106.544ZM114.288 38.64C114.648 38.0533 115.114 37.5933 115.688 37.26C116.274 36.9267 116.941 36.76 117.688 36.76V39.7H116.948C116.068 39.7 115.401 39.9067 114.948 40.32C114.508 40.7333 114.288 41.4533 114.288 42.48V48H111.488V36.92H114.288V38.64ZM120.994 35.6C120.5 35.6 120.087 35.4467 119.754 35.14C119.434 34.82 119.274 34.4267 119.274 33.96C119.274 33.4933 119.434 33.1067 119.754 32.8C120.087 32.48 120.5 32.32 120.994 32.32C121.487 32.32 121.894 32.48 122.214 32.8C122.547 33.1067 122.714 33.4933 122.714 33.96C122.714 34.4267 122.547 34.82 122.214 35.14C121.894 35.4467 121.487 35.6 120.994 35.6ZM122.374 36.92V48H119.574V36.92H122.374ZM135.44 42.22C135.44 42.62 135.413 42.98 135.36 43.3H127.26C127.327 44.1 127.607 44.7267 128.1 45.18C128.593 45.6333 129.2 45.86 129.92 45.86C130.96 45.86 131.7 45.4133 132.14 44.52H135.16C134.84 45.5867 134.227 46.4667 133.32 47.16C132.413 47.84 131.3 48.18 129.98 48.18C128.913 48.18 127.953 47.9467 127.1 47.48C126.26 47 125.6 46.3267 125.12 45.46C124.653 44.5933 124.42 43.5933 124.42 42.46C124.42 41.3133 124.653 40.3067 125.12 39.44C125.587 38.5733 126.24 37.9067 127.08 37.44C127.92 36.9733 128.887 36.74 129.98 36.74C131.033 36.74 131.973 36.9667 132.8 37.42C133.64 37.8733 134.287 38.52 134.74 39.36C135.207 40.1867 135.44 41.14 135.44 42.22ZM132.54 41.42C132.527 40.7 132.267 40.1267 131.76 39.7C131.253 39.26 130.633 39.04 129.9 39.04C129.207 39.04 128.62 39.2533 128.14 39.68C127.673 40.0933 127.387 40.6733 127.28 41.42H132.54ZM143.624 36.76C144.944 36.76 146.01 37.18 146.824 38.02C147.637 38.8467 148.044 40.0067 148.044 41.5V48H145.244V41.88C145.244 41 145.024 40.3267 144.584 39.86C144.144 39.38 143.544 39.14 142.784 39.14C142.01 39.14 141.397 39.38 140.944 39.86C140.504 40.3267 140.284 41 140.284 41.88V48H137.484V36.92H140.284V38.3C140.657 37.82 141.13 37.4467 141.704 37.18C142.29 36.9 142.93 36.76 143.624 36.76ZM149.986 42.42C149.986 41.3 150.206 40.3067 150.646 39.44C151.1 38.5733 151.713 37.9067 152.486 37.44C153.26 36.9733 154.12 36.74 155.066 36.74C155.786 36.74 156.473 36.9 157.126 37.22C157.78 37.5267 158.3 37.94 158.686 38.46V33.2H161.526V48H158.686V46.36C158.34 46.9067 157.853 47.3467 157.226 47.68C156.6 48.0133 155.873 48.18 155.046 48.18C154.113 48.18 153.26 47.94 152.486 47.46C151.713 46.98 151.1 46.3067 150.646 45.44C150.206 44.56 149.986 43.5533 149.986 42.42ZM158.706 42.46C158.706 41.78 158.573 41.2 158.306 40.72C158.04 40.2267 157.68 39.8533 157.226 39.6C156.773 39.3333 156.286 39.2 155.766 39.2C155.246 39.2 154.766 39.3267 154.326 39.58C153.886 39.8333 153.526 40.2067 153.246 40.7C152.98 41.18 152.846 41.7533 152.846 42.42C152.846 43.0867 152.98 43.6733 153.246 44.18C153.526 44.6733 153.886 45.0533 154.326 45.32C154.78 45.5867 155.26 45.72 155.766 45.72C156.286 45.72 156.773 45.5933 157.226 45.34C157.68 45.0733 158.04 44.7 158.306 44.22C158.573 43.7267 158.706 43.14 158.706 42.46ZM163.541 42.42C163.541 41.3 163.761 40.3067 164.201 39.44C164.654 38.5733 165.261 37.9067 166.021 37.44C166.794 36.9733 167.654 36.74 168.601 36.74C169.428 36.74 170.148 36.9067 170.761 37.24C171.388 37.5733 171.888 37.9933 172.261 38.5V36.92H175.081V48H172.261V46.38C171.901 46.9 171.401 47.3333 170.761 47.68C170.134 48.0133 169.408 48.18 168.581 48.18C167.648 48.18 166.794 47.94 166.021 47.46C165.261 46.98 164.654 46.3067 164.201 45.44C163.761 44.56 163.541 43.5533 163.541 42.42ZM172.261 42.46C172.261 41.78 172.128 41.2 171.861 40.72C171.594 40.2267 171.234 39.8533 170.781 39.6C170.328 39.3333 169.841 39.2 169.321 39.2C168.801 39.2 168.321 39.3267 167.881 39.58C167.441 39.8333 167.081 40.2067 166.801 40.7C166.534 41.18 166.401 41.7533 166.401 42.42C166.401 43.0867 166.534 43.6733 166.801 44.18C167.081 44.6733 167.441 45.0533 167.881 45.32C168.334 45.5867 168.814 45.72 169.321 45.72C169.841 45.72 170.328 45.5933 170.781 45.34C171.234 45.0733 171.594 44.7 171.861 44.22C172.128 43.7267 172.261 43.14 172.261 42.46Z" fill="#383838"/>
<defs>
<filter id="filter0_d_153_3564" x="0" y="0" width="255" height="90" filterUnits="userSpaceOnUse" color-interpolation-filters="sRGB">
<feFlood flood-opacity="0" result="BackgroundImageFix"/>
<feColorMatrix in="SourceAlpha" type="matrix" values="0 0 0 0 0 0 0 0 0 0 0 0 0 0 0 0 0 0 127 0" result="hardAlpha"/>
<feOffset dy="4"/>
<feGaussianBlur stdDeviation="5"/>
<feComposite in2="hardAlpha" operator="out"/>
<feColorMatrix type="matrix" values="0 0 0 0 0.792157 0 0 0 0 0.756863 0 0 0 0 0.756863 0 0 0 0.45 0"/>
<feBlend mode="normal" in2="BackgroundImageFix" result="effect1_dropShadow_153_3564"/>
<feBlend mode="normal" in="SourceGraphic" in2="effect1_dropShadow_153_3564" result="shape"/>
</filter>
</defs>
</svg>
