<svg width="149" height="20" viewBox="0 0 149 20" fill="none" xmlns="http://www.w3.org/2000/svg">
<path d="M7.8791 1.5C9.39577 1.5 10.7124 1.75 11.8291 2.25C12.9624 2.75 13.8291 3.46667 14.4291 4.4C15.0291 5.33333 15.3291 6.44167 15.3291 7.725C15.3291 8.99167 15.0291 10.1 14.4291 11.05C13.8291 11.9833 12.9624 12.7 11.8291 13.2C10.7124 13.7 9.39577 13.95 7.8791 13.95H3.9291V19H0.679102V1.5H7.8791ZM7.7291 11.2C9.14577 11.2 10.2208 10.9 10.9541 10.3C11.6874 9.7 12.0541 8.84167 12.0541 7.725C12.0541 6.60833 11.6874 5.75 10.9541 5.15C10.2208 4.55 9.14577 4.25 7.7291 4.25H3.9291V11.2H7.7291ZM18.5188 0.449999H21.6438V19H18.5188V0.449999ZM30.8453 5.5C32.812 5.5 34.312 5.975 35.3453 6.925C36.3953 7.85833 36.9203 9.275 36.9203 11.175V19H33.9703V17.375C33.587 17.9583 33.037 18.4083 32.3203 18.725C31.6203 19.025 30.7703 19.175 29.7703 19.175C28.7703 19.175 27.8953 19.0083 27.1453 18.675C26.3953 18.325 25.812 17.85 25.3953 17.25C24.9953 16.6333 24.7953 15.9417 24.7953 15.175C24.7953 13.975 25.237 13.0167 26.1203 12.3C27.0203 11.5667 28.4286 11.2 30.3453 11.2H33.7953V11C33.7953 10.0667 33.512 9.35 32.9453 8.85C32.3953 8.35 31.5703 8.1 30.4703 8.1C29.7203 8.1 28.9786 8.21667 28.2453 8.45C27.5286 8.68333 26.9203 9.00833 26.4203 9.425L25.1953 7.15C25.8953 6.61667 26.737 6.20833 27.7203 5.925C28.7036 5.64167 29.7453 5.5 30.8453 5.5ZM30.4203 16.9C31.2036 16.9 31.8953 16.725 32.4953 16.375C33.112 16.0083 33.5453 15.4917 33.7953 14.825V13.275H30.5703C28.7703 13.275 27.8703 13.8667 27.8703 15.05C27.8703 15.6167 28.0953 16.0667 28.5453 16.4C28.9953 16.7333 29.6203 16.9 30.4203 16.9ZM48.5059 5.5C50.1892 5.5 51.5392 5.99167 52.5559 6.975C53.5725 7.95833 54.0809 9.41667 54.0809 11.35V19H50.9559V11.75C50.9559 10.5833 50.6809 9.70833 50.1309 9.125C49.5809 8.525 48.7975 8.225 47.7809 8.225C46.6309 8.225 45.7225 8.575 45.0559 9.275C44.3892 9.95833 44.0559 10.95 44.0559 12.25V19H40.9309V5.65H43.9059V7.375C44.4225 6.75833 45.0725 6.29167 45.8559 5.975C46.6392 5.65833 47.5225 5.5 48.5059 5.5ZM65.6201 5.5C67.3035 5.5 68.6535 5.99167 69.6701 6.975C70.6868 7.95833 71.1951 9.41667 71.1951 11.35V19H68.0701V11.75C68.0701 10.5833 67.7951 9.70833 67.2451 9.125C66.6951 8.525 65.9118 8.225 64.8951 8.225C63.7451 8.225 62.8368 8.575 62.1701 9.275C61.5035 9.95833 61.1701 10.95 61.1701 12.25V19H58.0451V5.65H61.0201V7.375C61.5368 6.75833 62.1868 6.29167 62.9701 5.975C63.7535 5.65833 64.6368 5.5 65.6201 5.5ZM87.8314 12.4C87.8314 12.6167 87.8148 12.925 87.7814 13.325H77.3064C77.4898 14.3083 77.9648 15.0917 78.7314 15.675C79.5148 16.2417 80.4814 16.525 81.6314 16.525C83.0981 16.525 84.3064 16.0417 85.2564 15.075L86.9314 17C86.3314 17.7167 85.5731 18.2583 84.6564 18.625C83.7398 18.9917 82.7064 19.175 81.5564 19.175C80.0898 19.175 78.7981 18.8833 77.6814 18.3C76.5648 17.7167 75.6981 16.9083 75.0814 15.875C74.4814 14.825 74.1814 13.6417 74.1814 12.325C74.1814 11.025 74.4731 9.85833 75.0564 8.825C75.6564 7.775 76.4814 6.95833 77.5314 6.375C78.5814 5.79167 79.7648 5.5 81.0814 5.5C82.3814 5.5 83.5398 5.79167 84.5564 6.375C85.5898 6.94167 86.3898 7.75 86.9564 8.8C87.5398 9.83333 87.8314 11.0333 87.8314 12.4ZM81.0814 8C80.0814 8 79.2314 8.3 78.5314 8.9C77.8481 9.48333 77.4314 10.2667 77.2814 11.25H84.8564C84.7231 10.2833 84.3148 9.5 83.6314 8.9C82.9481 8.3 82.0981 8 81.0814 8ZM93.8082 7.6C94.7082 6.2 96.2915 5.5 98.5582 5.5V8.475C98.2915 8.425 98.0499 8.4 97.8332 8.4C96.6165 8.4 95.6665 8.75833 94.9832 9.475C94.2999 10.175 93.9582 11.1917 93.9582 12.525V19H90.8332V5.65H93.8082V7.6ZM114.512 16.275V19H101.387V1.5H114.162V4.225H104.637V8.775H113.087V11.45H104.637V16.275H114.512ZM129.485 14.95H120.735L119.01 19H115.66L123.535 1.5H126.735L134.635 19H131.235L129.485 14.95ZM128.41 12.4L125.11 4.75L121.835 12.4H128.41ZM139.532 4.25H133.732V1.5H148.582V4.25H142.782V19H139.532V4.25Z" fill="#68D7E0"/>
</svg>
